<svg width="71" height="70" viewBox="0 0 71 70" fill="none" xmlns="http://www.w3.org/2000/svg">
<path d="M50.1558 16.2231L42.3151 1.01236L58.8172 2.53798L51.5462 6.40897L50.1558 16.2231Z" fill="#003FA2"/>
<path fill-rule="evenodd" clip-rule="evenodd" d="M35.1355 13.741C46.7827 13.741 56.2646 23.3046 56.2646 35.0314C56.2646 46.7355 46.7599 56.2991 35.1355 56.2991C23.4883 56.2991 13.9836 46.7355 13.9836 35.0314C13.9836 23.3046 23.5111 13.741 35.1355 13.741Z" fill="#E15200"/>
<path d="M57.6549 58.2802C52.914 60.8988 48.1731 62.2878 47.4209 62.6294C47.3753 62.6521 47.3069 62.6749 47.2614 62.6977C47.4665 62.6066 47.6716 62.5155 47.8768 62.4244C47.6716 62.4927 47.5349 62.561 47.4437 62.5838C39.2838 66.2043 29.574 66.1816 21.0723 61.6958C6.27965 53.9082 0.581415 35.6235 8.3766 20.8227C8.3766 20.8227 9.21994 19.2743 9.65301 18.6139C10.3368 17.5209 11.4081 16.2913 11.4081 16.2913C11.4081 16.2913 8.87805 17.2249 5.07162 24.0788C1.99458 29.6349 0.171143 37.9006 0.171143 37.9006C1.17403 49.3997 7.82957 60.1701 18.8158 65.9538C35.9789 74.971 57.1991 68.4131 66.2251 51.2896C66.1795 51.3807 62.9429 55.3428 57.6549 58.2802Z" fill="#003FA2"/>
<path d="M0.444824 29.521C0.467618 29.4527 0.467618 29.3616 0.490412 29.2933C0.467618 29.3844 0.444824 29.4527 0.444824 29.521Z" fill="#003FA2"/>
<path d="M40.7882 4.56443C40.0588 3.19819 39.375 1.80919 38.714 0.42019C38.6684 0.329108 38.6228 0.260795 38.6 0.169713C24.7875 -1.19652 10.9066 5.74849 4.04593 18.7505C4.04593 18.7505 1.92618 21.9383 0.672566 28.3369C-0.421495 33.9156 0.148331 38.0599 0.148331 38.0599C0.148331 38.0599 1.94897 29.6576 5.04881 24.1015C8.85524 17.2476 11.3853 16.314 11.3853 16.314C18.5194 7.29689 30.1666 3.15265 41.2896 5.47525C41.13 5.17923 40.9477 4.86044 40.7882 4.56443Z" fill="#003FA2"/>
<path d="M51.5008 4.04078C49.495 2.99333 47.4437 2.15082 45.3695 1.51324C45.8026 2.15082 46.1673 2.83394 46.5319 3.51705C47.1474 4.65558 47.6716 5.83965 48.3326 6.9554C48.5833 7.38804 48.8796 7.82068 49.1531 8.2761C49.1987 8.29887 49.2443 8.32163 49.2671 8.3444C64.0597 16.1319 69.758 34.4167 61.9628 49.2175C58.635 55.5477 53.3698 60.2157 47.2841 62.8571C47.3297 62.8343 47.3981 62.8115 47.4437 62.7887C48.1958 62.4472 52.9596 61.0582 57.6777 58.4396C62.9885 55.5022 66.2478 51.4718 66.2478 51.4718C75.2511 34.28 68.6639 13.0579 51.5008 4.04078Z" fill="#003FA2"/>
<path d="M24.6503 36.0562C23.146 36.2384 21.6416 35.3731 21.0946 33.8702C20.4336 32.1169 22.485 31.4338 23.3283 29.6121C24.1489 27.7905 23.3283 25.7867 25.0834 25.1264C26.8384 24.466 28.5023 25.3085 29.4596 27.1074C30.3941 28.929 29.4596 27.1074 29.4596 27.1074C29.4596 27.1074 31.8529 32.4357 33.0609 35.0998L34.1778 34.4623C33.0381 31.6843 30.2118 25.6501 30.2118 25.6501C30.2118 25.6501 31.4654 28.0638 30.2118 25.6501C28.9582 23.2364 26.7245 22.1206 24.3768 23.0087C22.0291 23.8967 23.146 26.5609 22.0519 28.9746C20.9351 31.411 18.1999 32.3218 19.0888 34.6672C19.8182 36.6482 21.8012 37.7868 23.807 37.5818C23.9893 37.5363 24.3312 37.468 24.9238 37.3086C26.2686 36.9898 28.0465 36.4661 29.7559 35.9196C30.0978 35.8057 29.9839 35.282 29.6192 35.3276C27.2487 35.7147 24.5364 36.1018 24.6503 36.0562Z" fill="white"/>
<path d="M48.2638 40.9975C49.3806 38.561 52.1158 37.6502 51.2269 35.3048C50.4975 33.3238 48.5145 32.1853 46.5087 32.3902C46.3264 32.4358 45.9845 32.5041 45.3919 32.6635C44.1611 32.9595 42.9302 33.3466 41.6766 33.7565C41.4259 33.8475 41.5399 34.2119 41.7906 34.1663C43.181 33.8475 44.6625 33.5515 45.7566 33.4604C47.2609 33.2783 48.6285 34.6445 49.1755 36.1474C49.8365 37.9007 47.7851 38.5838 46.9418 40.4054C46.1213 42.2271 46.9418 44.2309 45.1867 44.8912C43.4317 45.5516 41.7678 44.7091 40.8105 42.9102C39.876 41.0886 40.8105 42.9102 40.8105 42.9102C40.8105 42.9102 38.2349 36.876 37.3916 34.9405L36.1379 35.5781C37.2092 38.1967 40.0583 44.322 40.0583 44.322C40.0583 44.322 38.8047 41.9083 40.0583 44.322C41.3119 46.7357 43.5457 47.8514 45.8933 46.9634C48.2638 46.0981 47.1469 43.4112 48.2638 40.9975Z" fill="white"/>
<path d="M37.8929 32.8001C39.9443 31.6388 42.8162 29.7944 42.8162 29.7944C42.8162 29.7944 40.2634 31.3428 42.8162 29.7944C44.5713 28.7242 45.4602 27.1758 44.7992 25.4224C44.1382 23.6691 42.1324 24.5116 40.309 23.6691C38.4856 22.8494 37.8018 20.8 36.0467 21.4376C34.5652 21.9841 33.699 23.4869 33.8586 24.9898C33.813 24.7621 33.813 24.8304 33.8586 24.9898C33.8814 25.263 33.9498 25.5363 34.0409 25.7868C34.0409 25.7868 33.9042 25.2403 33.8586 24.9898C33.8814 25.1264 33.9498 25.3769 34.0409 25.7868C34.4284 27.4035 35.9328 31.7299 36.6621 33.0733L35.3173 33.7792C34.4056 31.2061 33.0836 27.5401 32.5366 25.2175C32.3998 24.6255 32.3087 24.2839 32.2631 24.1017C32.058 22.0979 33.1976 20.1397 35.1806 19.3882C37.5283 18.5002 38.44 21.2554 40.8788 22.3484C43.3177 23.4414 45.9844 22.3484 46.8506 24.6938C47.7395 27.0391 46.5087 29.0657 44.2066 30.523C41.5626 32.1853 44.2066 30.523 44.2066 30.523C44.2066 30.523 41.1068 32.3447 38.3488 34.0752L32.3315 37.1265C30.4397 38.3105 27.4538 40.2233 27.4538 40.2233C27.4538 40.2233 29.3684 39.0164 27.4538 40.2233C25.7215 41.3163 24.8098 42.8419 25.4708 44.5952C26.1318 46.3485 28.1376 45.506 29.961 46.3485C31.7844 47.1683 32.4682 49.2176 34.2233 48.5801C35.7048 48.0336 36.571 46.5307 36.4114 45.0279C36.457 45.2556 36.457 45.1872 36.4114 45.0279C36.3886 44.7546 36.3202 44.4814 36.2291 44.2309C36.2291 44.2309 36.3658 44.7774 36.4114 45.0279C36.3886 44.8912 36.3202 44.6408 36.2291 44.2309C35.8416 42.6142 34.6336 39.2669 33.6535 36.8988L34.7931 36.2612C35.7276 38.6521 37.1636 42.4776 37.7106 44.8229C37.8474 45.415 37.9385 45.7565 37.9841 45.9387C38.1893 47.9425 37.0496 49.9007 35.0666 50.6522C32.719 51.5402 31.8072 48.785 29.3684 47.692C26.9295 46.599 24.2628 47.692 23.3966 45.3466C22.5077 43.0013 23.8981 41.2024 26.0406 39.5174C28.0008 37.9918 26.0406 39.5174 26.0406 39.5174C26.0406 39.5174 29.1177 37.4453 32.1263 35.988L37.8929 32.8001Z" fill="white"/>
<path d="M38.8961 44.9821C39.124 44.8683 40.56 47.7601 42.8621 49.8778C45.5516 52.337 47.5802 52.4053 47.5802 52.4053C47.5802 52.4053 46.8508 53.134 45.9391 53.726C45.0274 54.318 44.3436 54.4319 44.3436 54.4319C44.3436 54.4319 42.8393 53.134 41.4261 50.8797C40.1953 48.8531 38.6682 45.096 38.8961 44.9821Z" fill="white"/>
<path fill-rule="evenodd" clip-rule="evenodd" d="M65.4273 59.6463C67.0684 59.6463 68.3676 60.8987 68.3676 62.5154C68.3676 64.1321 67.0684 65.4073 65.4273 65.4073C63.7862 65.4073 62.4642 64.1321 62.4642 62.5154C62.4642 60.8987 63.7634 59.6463 65.4273 59.6463ZM65.4045 60.2156C64.1509 60.2156 63.1936 61.2402 63.1936 62.5154C63.1936 63.7905 64.1509 64.8152 65.4501 64.8152C66.7037 64.838 67.6382 63.7905 67.6382 62.5382C67.6382 61.263 66.6809 60.2156 65.4045 60.2156ZM64.9715 64.0182H64.3105V61.1492C64.584 61.1036 64.9487 61.0581 65.4273 61.0581C65.9743 61.0581 66.2251 61.1492 66.4074 61.2858C66.5897 61.3996 66.7037 61.6273 66.7037 61.9006C66.7037 62.2421 66.4302 62.4698 66.1111 62.5837V62.6292C66.3846 62.7203 66.5214 62.948 66.6125 63.3351C66.7037 63.7678 66.7721 63.9272 66.8177 64.041H66.1111C66.0199 63.9272 65.9743 63.6995 65.8832 63.3351C65.8376 63.0391 65.6552 62.9025 65.2905 62.9025H64.9715V64.0182ZM64.9715 62.4015H65.2905C65.6552 62.4015 65.9515 62.2877 65.9515 61.9917C65.9515 61.7184 65.7692 61.559 65.3361 61.559C65.1538 61.559 65.0398 61.5818 64.9715 61.6046V62.4015Z" fill="#003FA2"/>
</svg>
