<svg width="235" height="81" viewBox="0 0 235 81" fill="none" xmlns="http://www.w3.org/2000/svg">
<path fill-rule="evenodd" clip-rule="evenodd" d="M40.4873 15.9248C53.8482 15.9248 64.7596 26.9775 64.7596 40.4863C64.7596 53.9952 53.8482 65.0479 40.4873 65.0479C27.1264 65.0479 16.2149 53.9952 16.2149 40.4863C16.1036 26.9775 27.1264 15.9248 40.4873 15.9248Z" fill="#E15200"/>
<path d="M66.3184 67.2807C60.8627 70.2951 55.407 71.9697 54.5163 72.3047C54.4049 72.3047 54.4049 72.3047 54.2936 72.4163C54.5163 72.3047 54.739 72.193 54.9616 72.0814C54.739 72.193 54.5163 72.193 54.4049 72.3047C45.0523 76.4355 33.9182 76.4355 24.1202 71.2999C7.08501 62.3684 0.515895 41.1562 9.53452 24.1864C9.53452 24.1864 10.5366 22.4001 10.9819 21.6186C11.7613 20.3906 12.9861 18.9392 12.9861 18.9392C12.9861 18.9392 10.0912 20.0556 5.74892 27.9823C2.29735 34.346 0.293213 43.8357 0.293213 43.8357C1.40662 57.1212 9.08915 69.5136 21.782 76.2122C41.4894 86.595 65.8731 79.0033 76.3391 59.2424C76.1164 59.3541 72.4422 63.9314 66.3184 67.2807Z" fill="#003FA2"/>
<path d="M13.2087 18.9392C23.3408 5.98855 41.6007 1.7461 56.6317 9.67277C73.6669 18.6042 80.236 39.8164 71.2174 56.7862C67.4318 64.043 61.3081 69.5135 54.2936 72.5279C54.4049 72.5279 54.4049 72.5279 54.5163 72.4163C55.407 72.0813 60.8627 70.4067 66.3184 67.3923C72.4422 64.043 76.1164 59.354 76.1164 59.354C86.4711 39.5932 78.8999 15.0316 59.1926 4.64883C39.4852 -5.73399 14.9902 1.85775 4.63549 21.6186C4.63549 21.6186 2.18599 25.3028 0.738555 32.6713C-0.486196 39.1466 0.18185 43.8356 0.18185 43.8356C0.18185 43.8356 2.29733 34.3459 5.86024 27.8706C10.2025 19.944 13.2087 18.9392 13.2087 18.9392Z" fill="#003FA2"/>
<path d="M28.4625 41.7144C26.681 41.9377 25.0109 40.9329 24.3429 39.1466C23.5635 37.137 25.9017 36.3555 26.9037 34.2343C27.9058 32.113 26.9037 29.8802 28.9079 29.0987C30.912 28.3172 32.8048 29.322 33.9182 31.4432C35.0316 33.5644 33.9182 31.4432 33.9182 31.4432C33.9182 31.4432 36.7017 37.5836 38.0378 40.7096L39.2626 39.9281C37.9265 36.6904 34.6976 29.7685 34.6976 29.7685C34.6976 29.7685 36.145 32.5596 34.6976 29.7685C33.2502 26.9775 30.6893 25.7494 28.0171 26.7542C25.3449 27.759 26.5697 30.885 25.3449 33.6761C24.1202 36.4671 20.8913 37.5836 21.8934 40.263C22.7841 42.4959 25.0109 43.8356 27.3491 43.6123C27.5718 43.6123 27.9058 43.5007 28.6852 43.2774C30.244 42.9424 32.2481 42.2726 34.2522 41.7144C34.6976 41.6027 34.4749 40.9329 34.1409 41.0445C31.3574 41.2678 28.2398 41.7144 28.4625 41.7144Z" fill="white"/>
<path d="M55.5182 47.4082C56.743 44.6171 59.9718 43.5007 58.9698 40.8213C58.0791 38.5884 55.8522 37.2487 53.5141 37.472C53.2914 37.472 52.9574 37.5836 52.178 37.8069C50.7305 38.1418 49.3945 38.5884 47.947 39.035C47.613 39.1466 47.7243 39.5932 48.0584 39.4815C49.6171 39.1466 51.3986 38.8117 52.6233 38.7C54.4048 38.4767 55.9636 40.0398 56.5203 41.826C57.2997 43.8356 54.9615 44.6171 53.9594 46.7383C52.9574 48.8596 53.9594 51.0924 51.9553 51.8739C49.9512 52.6554 48.0584 51.6506 46.945 49.5294C45.8315 47.4082 46.945 49.5294 46.945 49.5294C46.945 49.5294 43.9387 42.6075 43.048 40.3747L41.6006 41.1562C42.8253 44.1706 46.1656 51.2041 46.1656 51.2041C46.1656 51.2041 44.7181 48.413 46.1656 51.2041C47.613 53.9952 50.1738 55.2232 52.846 54.2184C55.5182 53.2137 54.2935 50.1993 55.5182 47.4082Z" fill="white"/>
<path d="M43.6048 37.9185C45.943 36.5788 49.2832 34.4576 49.2832 34.4576C49.2832 34.4576 46.3883 36.2439 49.2832 34.4576C51.2873 33.2295 52.2894 31.4432 51.6214 29.4336C50.842 27.4241 48.6152 28.3172 46.4997 27.4241C44.3842 26.4193 43.6048 24.0748 41.6007 24.8563C39.9306 25.5261 38.9285 27.2008 39.0398 28.9871C38.9285 28.7638 39.0398 28.7638 39.0398 28.9871C39.0398 29.322 39.1512 29.6569 39.2625 29.8802C39.2625 29.8802 39.1512 29.2104 39.0398 28.9871C39.0398 29.0987 39.1512 29.4336 39.2625 29.8802C39.7079 31.7781 41.4893 36.6905 42.2687 38.2535L40.7099 39.1466C39.7079 36.1322 38.1491 32.0014 37.4811 29.2104C37.3697 28.5405 37.2584 28.0939 37.147 27.8706C36.9243 25.5261 38.2604 23.2933 40.4873 22.4001C43.1594 21.3953 44.2729 24.5213 47.0564 25.8611C49.8399 27.0891 52.9575 25.8611 53.9595 28.5405C54.9616 31.2199 53.5142 33.5644 50.9533 35.2391C47.9471 37.137 50.9533 35.2391 50.9533 35.2391C50.9533 35.2391 47.3904 37.3603 44.1615 39.3699L37.2584 42.8308C35.0316 44.1705 31.6913 46.4034 31.6913 46.4034C31.6913 46.4034 33.9181 44.952 31.6913 46.4034C29.6872 47.6315 28.6851 49.4178 29.3532 51.4274C30.1325 53.4369 32.3594 52.5438 34.4748 53.4369C36.5903 54.4417 37.3697 56.7862 39.3739 56.0047C41.044 55.3349 42.046 53.6602 41.9347 51.8739C42.046 52.0972 41.9347 52.0972 41.9347 51.8739C41.9347 51.539 41.8234 51.2041 41.712 50.9808C41.712 50.9808 41.8234 51.6506 41.9347 51.8739C41.9347 51.7623 41.8234 51.4274 41.712 50.9808C41.2667 49.0828 39.9306 45.287 38.8171 42.4959L40.1532 41.826C41.2666 44.6171 42.8254 48.9712 43.4935 51.6506C43.6048 52.3205 43.7162 52.7671 43.8275 52.9904C44.0502 55.3349 42.7141 57.5677 40.4873 58.4609C37.8151 59.4657 36.7017 56.3397 33.9181 54.9999C31.1346 53.7719 28.0171 54.9999 27.015 52.3205C26.0129 49.6411 27.5717 47.5198 30.0212 45.6219C32.248 43.8356 30.0212 45.6219 30.0212 45.6219C30.0212 45.6219 33.5841 43.2774 37.0357 41.6028L43.6048 37.9185Z" fill="white"/>
<path d="M44.8296 51.9856C45.0523 51.8739 46.7224 55.2232 49.3946 57.5677C52.5121 60.3588 54.8503 60.4705 54.8503 60.4705C54.8503 60.4705 54.0709 61.3636 52.9575 62.0335C51.9554 62.7033 51.176 62.815 51.176 62.815C51.176 62.815 49.3946 61.3636 47.8358 58.6842C46.277 56.4513 44.4956 52.0972 44.8296 51.9856Z" fill="white"/>
<path fill-rule="evenodd" clip-rule="evenodd" d="M75.3371 68.9554C77.2299 68.9554 78.6773 70.4067 78.6773 72.3046C78.6773 74.2026 77.2299 75.6539 75.3371 75.6539C73.4443 75.6539 71.8855 74.2026 71.8855 72.3046C71.8855 70.4067 73.4443 68.9554 75.3371 68.9554ZM75.2257 69.6252C73.7783 69.6252 72.6649 70.8533 72.6649 72.3046C72.6649 73.756 73.7783 74.9841 75.2257 74.9841C76.6732 74.9841 77.7866 73.756 77.7866 72.3046C77.7866 70.7416 76.7845 69.6252 75.2257 69.6252ZM74.7804 73.9793H74.001V70.63C74.335 70.63 74.7804 70.5184 75.2257 70.5184C75.8938 70.5184 76.1165 70.63 76.3391 70.7416C76.5618 70.8533 76.6732 71.0766 76.6732 71.4115C76.6732 71.8581 76.3391 72.0814 76.0051 72.193C76.3391 72.3046 76.4505 72.5279 76.5618 72.9745C76.6732 73.5327 76.7845 73.6444 76.7845 73.756H76.0051C75.8938 73.6444 75.8938 73.3094 75.7824 72.9745C75.7824 72.7512 75.5598 72.6396 75.1144 72.6396H74.7804V73.9793ZM74.7804 72.0814H75.1144C75.5598 72.0814 75.8938 71.9697 75.8938 71.6348C75.8938 71.2999 75.6711 71.0766 75.2257 71.0766C75.003 71.0766 74.8917 71.0766 74.7804 71.0766V72.0814Z" fill="#003FA2"/>
<path d="M110.966 30.3268V11.0125C110.966 10.0077 111.523 9.44949 112.525 9.44949H114.306C115.308 9.44949 115.865 10.0077 115.865 11.0125V30.4384C115.865 31.4432 115.308 32.0014 114.306 32.0014H112.525C111.523 32.0014 110.966 31.4432 110.966 30.3268Z" fill="#003FA2"/>
<path d="M147.931 22.5118V30.4384C147.931 31.4432 147.374 32.0014 146.372 32.0014H144.814C143.811 32.0014 143.255 31.4432 143.255 30.4384V22.2885C143.255 19.8323 142.141 18.7159 139.915 18.7159C137.688 18.7159 136.797 19.8323 136.797 22.2885V30.4384C136.797 31.4432 136.24 32.0014 135.238 32.0014H133.679C132.677 32.0014 132.121 31.4432 132.121 30.4384V22.2885C132.121 19.8323 131.23 18.7159 129.003 18.7159C126.776 18.7159 125.663 19.8323 125.663 22.2885V30.4384C125.663 31.4432 125.106 32.0014 124.104 32.0014H122.545C121.543 32.0014 120.987 31.4432 120.987 30.4384V22.5118C120.987 16.7063 123.993 14.5851 128.669 14.5851C131.787 14.5851 133.568 15.4782 134.57 17.0412C135.572 15.4782 137.354 14.5851 140.471 14.5851C144.925 14.5851 147.931 16.7063 147.931 22.5118Z" fill="#003FA2"/>
<path d="M168.529 23.4049C168.529 29.9918 164.966 32.2247 158.843 32.2247C158.063 32.2247 157.284 32.2247 156.393 32.1131V37.2487C156.393 38.2535 155.836 38.8117 154.834 38.8117H153.164C152.162 38.8117 151.605 38.2535 151.605 37.2487V20.0556C151.605 16.1481 153.721 14.5851 158.843 14.5851C164.966 14.5851 168.529 16.8179 168.529 23.4049ZM163.742 23.4049C163.742 19.8323 162.406 18.6042 159.177 18.6042C156.727 18.6042 156.393 19.2741 156.393 20.9487V27.9823C157.395 28.0939 158.286 28.2056 159.065 28.2056C162.406 28.2056 163.742 26.9775 163.742 23.4049Z" fill="#003FA2"/>
<path d="M185.676 14.92H187.346C188.348 14.92 188.905 15.4782 188.905 16.483V24.1864C188.905 30.4384 185.787 32.2247 180.331 32.2247C174.987 32.2247 171.758 30.4384 171.758 24.1864V16.483C171.758 15.4782 172.315 14.92 173.317 14.92H174.987C175.989 14.92 176.546 15.4782 176.546 16.483V24.298C176.546 27.3124 177.659 28.2056 180.22 28.2056C182.781 28.2056 183.894 27.3124 183.894 24.298V16.483C184.117 15.4782 184.674 14.92 185.676 14.92Z" fill="#003FA2"/>
<path d="M194.583 7.66318H196.253C197.255 7.66318 197.812 8.22139 197.812 9.22618V30.3268C197.812 31.3315 197.255 31.8898 196.253 31.8898H194.583C193.581 31.8898 193.024 31.3315 193.024 30.3268V9.22618C193.024 8.22139 193.581 7.66318 194.583 7.66318Z" fill="#003FA2"/>
<path d="M201.709 29.7685V29.3219C201.709 28.2055 202.377 27.6473 203.49 27.8706C207.499 28.6521 211.73 28.8754 211.73 26.9774C211.73 26.1959 211.173 25.861 210.06 25.5261L206.385 24.6329C202.934 23.7398 201.486 22.0651 201.486 19.7206C201.486 14.8083 207.833 13.8035 213.845 15.2549C214.736 15.4782 215.181 16.148 215.181 17.0412V17.4878C215.181 18.6042 214.513 19.0508 213.4 18.8275C210.06 18.046 206.051 17.9343 206.051 19.4973C206.051 20.0556 206.497 20.5021 207.276 20.6138L211.173 21.6186C214.625 22.5117 216.183 24.1864 216.183 26.7542C216.183 32.113 209.169 33.1178 202.934 31.4432C202.154 31.3315 201.709 30.7733 201.709 29.7685Z" fill="#003FA2"/>
<path d="M235 21.2837V26.9775C235 30.5501 233.33 32.0014 229.656 32.0014H225.759C221.528 32.0014 218.967 30.885 218.967 26.7542C218.967 22.6234 221.528 21.507 225.759 21.507H230.212V21.2837C230.212 19.3857 228.653 18.4926 226.204 18.4926C224.979 18.4926 223.309 18.7159 221.75 19.0508C220.637 19.2741 219.969 18.7159 219.969 17.5995V16.9296C219.969 15.9248 220.526 15.3666 221.639 15.1433C223.532 14.6967 225.313 14.5851 226.872 14.5851C231.548 14.5851 235 16.5947 235 21.2837ZM230.212 26.7542V24.9679H225.981C223.866 24.9679 223.42 25.4145 223.42 26.7542C223.42 27.9823 223.866 28.5405 225.981 28.5405H228.542C229.878 28.5405 230.212 27.8706 230.212 26.7542Z" fill="#003FA2"/>
<path d="M96.603 4.87213H94.4875V75.8772H96.603V4.87213Z" fill="#003FA2"/>
<path d="M131.119 42.7192C131.675 42.7192 132.121 42.8308 132.344 43.1658C132.566 43.5007 132.678 43.9473 132.566 44.5055L132.344 45.8452C132.232 46.4034 132.01 46.85 131.675 47.1849C131.341 47.5199 130.785 47.6315 130.228 47.6315H123.993L120.764 66.2759C120.653 66.8341 120.43 67.2807 120.096 67.6156C119.762 67.9506 119.205 68.0622 118.649 68.0622H116.644C116.088 68.0622 115.642 67.9506 115.42 67.6156C115.197 67.2807 115.086 66.8341 115.197 66.2759L118.426 47.6315H112.079C111.523 47.6315 111.077 47.5199 110.855 47.1849C110.632 46.85 110.521 46.4034 110.632 45.8452L110.855 44.5055C110.966 43.9473 111.189 43.5007 111.523 43.1658C111.857 42.8308 112.302 42.7192 112.97 42.7192H131.119Z" fill="#E15200"/>
<path d="M149.156 65.0478C146.595 67.2807 143.589 68.3971 139.915 68.3971C136.352 68.3971 133.568 67.2807 131.898 65.0478C130.117 62.815 129.671 59.5773 130.339 55.4465C131.119 51.3157 132.677 48.0781 135.238 45.8452C137.799 43.6123 140.805 42.4959 144.48 42.4959C148.043 42.4959 150.826 43.6123 152.496 45.8452C154.278 48.0781 154.723 51.3157 154.055 55.4465C153.276 59.5773 151.717 62.7033 149.156 65.0478ZM136.574 61.6985C137.354 62.9266 138.801 63.5965 140.694 63.5965C142.587 63.5965 144.257 62.9266 145.482 61.6985C146.706 60.4705 147.597 58.3492 148.154 55.3349C148.711 52.3205 148.488 50.1993 147.709 48.9712C146.929 47.7431 145.482 47.0733 143.589 47.0733C141.696 47.0733 140.026 47.7431 138.801 48.9712C137.576 50.1993 136.686 52.3205 136.129 55.3349C135.572 58.3492 135.795 60.4705 136.574 61.6985Z" fill="#E15200"/>
<path d="M178.216 56.3397C178.327 55.7815 178.55 55.3349 178.884 54.9999C179.218 54.665 179.663 54.5534 180.331 54.5534H182.224C182.781 54.5534 183.226 54.665 183.449 54.9999C183.672 55.3349 183.783 55.7815 183.672 56.3397L182.558 62.9266C182.336 64.378 181.89 65.4944 181.222 66.2759C180.554 67.0574 179.663 67.6156 178.327 67.9506C177.103 68.2855 175.321 68.5088 173.094 68.5088C168.863 68.5088 165.857 67.3923 164.076 65.0478C162.294 62.815 161.738 59.5773 162.517 55.4465C163.408 50.3109 165.634 46.7383 169.309 44.5055C172.983 42.2726 177.548 41.826 183.115 43.1658C184.117 43.389 184.562 44.0589 184.34 45.1753L184.117 46.4034C184.006 47.0733 183.783 47.5199 183.338 47.7431C182.892 47.9664 182.447 48.0781 181.779 47.9664C179.997 47.6315 178.439 47.4082 176.991 47.4082C175.655 47.4082 174.43 47.5198 173.428 47.8548C172.426 48.1897 171.536 48.6363 170.867 49.3061C170.199 49.976 169.531 50.8691 169.197 51.7623C168.752 52.7671 168.418 53.8835 168.195 55.3349C167.75 58.0143 167.861 60.0239 168.752 61.3636C169.643 62.7033 171.201 63.3732 173.428 63.3732C174.876 63.3732 175.878 63.2615 176.323 63.0383C176.769 62.815 177.103 62.2568 177.214 61.4753L178.216 56.3397Z" fill="#E15200"/>
<path d="M204.27 65.0478C201.709 67.2807 198.703 68.3971 195.028 68.3971C191.465 68.3971 188.682 67.2807 187.012 65.0478C185.23 62.815 184.785 59.5773 185.453 55.4465C186.232 51.3157 187.791 48.0781 190.352 45.8452C192.913 43.6123 195.919 42.4959 199.593 42.4959C203.156 42.4959 205.94 43.6123 207.61 45.8452C209.391 48.0781 209.837 51.3157 209.169 55.4465C208.501 59.5773 206.831 62.7033 204.27 65.0478ZM191.799 61.6985C192.579 62.9266 194.026 63.5965 195.919 63.5965C197.812 63.5965 199.482 62.9266 200.707 61.6985C201.932 60.4705 202.822 58.3492 203.379 55.3349C203.936 52.3205 203.713 50.1993 202.934 48.9712C202.154 47.7431 200.707 47.0733 198.814 47.0733C196.921 47.0733 195.251 47.7431 194.026 48.9712C192.802 50.1993 191.911 52.3205 191.354 55.3349C190.797 58.3492 190.909 60.4705 191.799 61.6985Z" fill="#E15200"/>
<path d="M183.004 77.1053H161.292C160.29 77.1053 159.511 76.1005 159.734 75.2074L160.29 73.0861C160.513 72.4163 161.07 71.8581 161.849 71.8581H183.449C184.451 71.8581 185.119 72.7512 185.008 73.756L184.674 75.8772C184.451 76.5471 183.783 77.1053 183.004 77.1053Z" fill="#003FA2"/>
<path d="M184.451 68.8437L188.348 73.6444C188.682 74.0909 188.682 74.7608 188.237 75.2074L182.559 80.008C181.779 80.6779 180.554 80.008 180.777 79.0032L182.447 69.4019C182.67 68.3971 183.895 68.0622 184.451 68.8437Z" fill="#003FA2"/>
</svg>
