<svg width="263" height="108" viewBox="0 0 263 108" fill="none" xmlns="http://www.w3.org/2000/svg">
<path d="M123.667 33.8955V12.2987C123.667 11.1752 124.292 10.551 125.415 10.551H127.413C128.536 10.551 129.16 11.1752 129.16 12.2987V34.0203C129.16 35.1439 128.536 35.7681 127.413 35.7681H125.415C124.292 35.7681 123.667 35.1439 123.667 33.8955Z" fill="white"/>
<path d="M165.113 25.1569V34.0203C165.113 35.1438 164.489 35.768 163.366 35.768H161.618C160.494 35.768 159.87 35.1438 159.87 34.0203V24.9072C159.87 22.1608 158.622 20.9124 156.125 20.9124C153.503 20.9124 152.63 22.1608 152.63 24.9072V34.0203C152.63 35.1438 152.005 35.768 150.882 35.768H149.134C148.011 35.768 147.386 35.1438 147.386 34.0203V24.9072C147.386 22.1608 146.388 20.9124 143.891 20.9124C141.269 20.9124 140.146 22.1608 140.146 24.9072V34.0203C140.146 35.1438 139.522 35.768 138.398 35.768H136.65C135.527 35.768 134.903 35.1438 134.903 34.0203V25.1569C134.903 18.6654 138.273 16.2935 143.517 16.2935C147.012 16.2935 149.009 17.2922 150.133 19.0399C151.256 17.2922 153.254 16.2935 156.749 16.2935C161.743 16.2935 165.113 18.6654 165.113 25.1569Z" fill="white"/>
<path d="M188.208 26.1556C188.208 33.5209 184.213 36.0177 177.347 36.0177C176.473 36.0177 175.6 36.0177 174.601 35.8928V41.6353C174.601 42.7589 173.977 43.383 172.853 43.383H170.981C169.857 43.383 169.233 42.7589 169.233 41.6353V22.4105C169.233 18.0412 171.605 16.2935 177.347 16.2935C184.213 16.2935 188.208 18.7902 188.208 26.1556ZM182.84 26.1556C182.84 22.1608 181.342 20.7876 177.722 20.7876C174.975 20.7876 174.601 21.5366 174.601 23.4092V31.2739C175.724 31.3987 176.723 31.5235 177.597 31.5235C181.342 31.5235 182.84 30.1503 182.84 26.1556Z" fill="white"/>
<path d="M207.433 16.6682H209.306C210.429 16.6682 211.053 17.2924 211.053 18.4159V27.0297C211.053 34.0205 207.558 36.0179 201.441 36.0179C195.449 36.0179 191.828 34.0205 191.828 27.0297V18.4159C191.828 17.2924 192.453 16.6682 193.576 16.6682H195.449C196.572 16.6682 197.196 17.2924 197.196 18.4159V27.1545C197.196 30.5251 198.445 31.5238 201.316 31.5238C204.187 31.5238 205.436 30.5251 205.436 27.1545V18.4159C205.685 17.2924 206.309 16.6682 207.433 16.6682Z" fill="white"/>
<path d="M217.545 8.55371H219.417C220.541 8.55371 221.165 9.17789 221.165 10.3014V33.8956C221.165 35.0191 220.541 35.6433 219.417 35.6433H217.545C216.421 35.6433 215.797 35.0191 215.797 33.8956V10.3014C215.672 9.17789 216.296 8.55371 217.545 8.55371Z" fill="white"/>
<path d="M225.409 33.2714V32.7721C225.409 31.5237 226.158 30.8995 227.407 31.1492C231.901 32.0231 236.645 32.2727 236.645 30.1505C236.645 29.2767 236.021 28.9021 234.772 28.5276L230.653 27.5289C226.783 26.5302 225.16 24.6577 225.16 22.0361C225.16 16.5433 232.275 15.4198 239.017 17.0427C240.015 17.2923 240.515 18.0413 240.515 19.04V19.5394C240.515 20.7878 239.766 21.2871 238.517 21.0374C234.772 20.1636 230.278 20.0387 230.278 21.7864C230.278 22.4106 230.777 22.91 231.651 23.0348L236.021 24.1583C239.891 25.157 241.638 27.0296 241.638 29.9008C241.638 35.893 233.774 37.0165 226.783 35.144C225.909 35.0191 225.409 34.395 225.409 33.2714Z" fill="white"/>
<path d="M262.736 23.7837V30.1503C262.736 34.1451 260.863 35.768 256.743 35.768H252.374C247.63 35.768 244.759 34.5196 244.759 29.9007C244.759 25.2817 247.63 24.0333 252.374 24.0333H257.368V23.7837C257.368 21.6614 255.62 20.6627 252.874 20.6627C251.5 20.6627 249.628 20.9124 247.88 21.2869C246.632 21.5366 245.883 20.9124 245.883 19.664V18.915C245.883 17.7915 246.507 17.1673 247.755 16.9176C249.877 16.4183 251.875 16.2935 253.623 16.2935C258.866 16.2935 262.736 18.5405 262.736 23.7837ZM257.368 29.9007V27.9033H252.624C250.252 27.9033 249.753 28.4026 249.753 29.9007C249.753 31.2739 250.252 31.8981 252.624 31.8981H255.495C257.118 31.8981 257.368 31.149 257.368 29.9007Z" fill="white"/>
<path d="M107.564 5.43262H105.192V84.8288H107.564V5.43262Z" fill="white"/>
<path d="M64.37 20.9126L54.2582 1.31323L75.4804 3.31062L66.2425 8.30409L64.37 20.9126Z" fill="white"/>
<path fill-rule="evenodd" clip-rule="evenodd" d="M45.1452 17.792C60.1256 17.792 72.3596 30.1508 72.3596 45.1312C72.3596 60.1117 60.1256 72.4705 45.1452 72.4705C30.1648 72.4705 17.9308 60.1117 17.9308 45.1312C17.9308 30.026 30.1648 17.792 45.1452 17.792Z" fill="#E15200"/>
<path d="M73.9824 74.9668C67.8654 78.3374 61.7484 80.0852 60.8746 80.5845C60.7497 80.5845 60.7497 80.5845 60.6249 80.7093C60.8746 80.5845 61.1243 80.4597 61.3739 80.3348C61.1243 80.4597 60.8746 80.4597 60.7498 80.5845C50.2635 85.2035 37.7798 85.2035 26.919 79.461C7.9438 69.3492 0.703266 45.8799 10.6902 26.9047C10.6902 26.9047 11.8137 24.9073 12.3131 24.0334C13.1869 22.6602 14.5601 21.0374 14.5601 21.0374C14.5601 21.0374 11.3144 22.2857 6.44576 31.0243C2.45098 38.14 0.203918 48.7511 0.203918 48.7511C1.45229 63.6067 9.94118 77.4636 24.0477 84.9538C46.1438 96.5636 73.3583 88.0747 84.9681 66.1034C84.9681 66.1034 80.8485 71.2217 73.9824 74.9668Z" fill="white"/>
<path d="M52.3857 5.93209C51.5118 4.18438 50.5131 2.43666 49.7641 0.564113C49.7641 0.439276 49.6393 0.314439 49.6393 0.189602C31.7876 -1.43328 13.9359 7.43013 5.19736 24.1583C5.19736 24.1583 2.45095 28.2779 0.828076 36.5171C-0.545128 43.6328 0.203892 49.0008 0.203892 49.0008C0.203892 49.0008 2.57579 38.14 6.44573 31.0243C11.3144 22.1609 14.5601 21.0373 14.5601 21.0373C23.6732 9.42752 38.7785 4.18438 53.0098 7.05562C52.7602 6.68111 52.5105 6.3066 52.3857 5.93209Z" fill="white"/>
<path d="M66.1177 5.30801C63.4961 3.93481 60.8746 2.93611 58.253 2.06226C58.7523 2.93611 59.2517 3.80997 59.751 4.68383C60.5001 6.05703 61.1242 7.55507 61.9981 9.05312C62.3726 9.6773 62.7471 10.1766 62.9968 10.8008C62.9968 10.8008 63.1216 10.8008 63.1216 10.9257C82.0968 20.9126 89.4622 44.5068 79.4752 63.482C75.2308 71.5963 68.4896 77.5885 60.6249 80.9591C60.7497 80.9591 60.7497 80.9591 60.8746 80.8343C61.8733 80.4598 67.9903 78.5872 73.9824 75.2166C80.8484 71.4715 84.9681 66.2284 84.9681 66.2284C96.5779 44.1323 88.2138 16.9178 66.1177 5.30801Z" fill="white"/>
<path d="M31.6628 46.504C29.6654 46.7537 27.7928 45.6302 27.0438 43.7576C26.1699 41.5105 28.7915 40.6367 29.915 38.2648C31.0386 35.8929 29.915 33.3961 32.1621 32.5223C34.4092 31.6484 36.5314 32.772 37.7798 35.019C39.0281 37.2661 37.7798 35.019 37.7798 35.019C37.7798 35.019 40.9007 41.8851 42.3987 45.2556L43.7719 44.5066C42.2739 40.8864 38.6536 33.1465 38.6536 33.1465C38.6536 33.1465 40.2765 36.2674 38.6536 33.1465C37.0307 30.0256 34.1595 28.6524 31.1634 29.7759C28.1673 30.8994 29.5405 34.3948 28.1673 37.5158C26.7941 40.6367 23.1739 41.7602 24.2974 44.8811C25.2961 47.3779 27.7928 48.8759 30.4144 48.6262C30.6641 48.6262 31.0386 48.5014 31.9124 48.2517C33.6601 47.8772 35.9072 47.1282 38.1543 46.504C38.6536 46.3792 38.4039 45.6302 38.0294 45.755C34.9085 46.0047 31.4131 46.504 31.6628 46.504Z" fill="white"/>
<path d="M61.9981 52.7461C63.3713 49.6252 66.9916 48.5017 65.8681 45.3808C64.8694 42.884 62.3726 41.386 59.7511 41.6357C59.5014 41.6357 59.1269 41.7605 58.253 42.0102C56.6301 42.3847 55.1321 42.884 53.5092 43.3834C53.1347 43.5082 53.3844 44.0076 53.6341 43.8827C55.3818 43.5082 57.3792 43.1337 58.7524 43.0089C60.7497 42.7592 62.4975 44.5069 63.1216 46.5043C63.9955 48.7514 61.3739 49.6252 60.2504 51.9971C59.1269 54.369 60.2504 56.8658 58.0033 57.7396C55.7563 58.6135 53.6341 57.4899 52.3857 55.2429C51.1373 52.871 52.3857 55.2429 52.3857 55.2429C52.3857 55.2429 49.1399 47.503 48.0164 45.0063L46.3935 45.8801C47.7667 49.2507 51.387 57.1154 51.387 57.1154C51.387 57.1154 49.7641 53.9945 51.387 57.1154C53.0099 60.2364 55.8811 61.6096 58.8772 60.486C61.9981 59.3625 60.5001 55.8671 61.9981 52.7461Z" fill="white"/>
<path d="M48.6406 42.2598C51.2621 40.7618 55.0072 38.3899 55.0072 38.3899C55.0072 38.3899 51.7615 40.3873 55.0072 38.3899C57.2543 37.0167 58.3778 35.0193 57.504 32.7722C56.6301 30.5251 54.1334 31.6487 51.7615 30.5251C49.3896 29.4016 48.5157 26.78 46.2687 27.6539C44.3961 28.4029 43.2726 30.2755 43.5223 32.2729C43.3974 32.0232 43.5223 32.0232 43.5223 32.2729C43.5223 32.6474 43.6471 33.0219 43.7719 33.2716C43.7719 33.2716 43.6471 32.5225 43.5223 32.2729C43.5223 32.3977 43.6471 32.7722 43.7719 33.2716C44.2713 35.3938 46.2687 40.8866 47.1425 42.6343L45.3948 43.5082C44.2713 40.1376 42.5236 35.5186 41.7745 32.5225C41.6497 31.7735 41.5249 31.2742 41.4 31.0245C41.1504 28.4029 42.6484 25.9062 45.1451 24.9075C48.1412 23.784 49.3896 27.2794 52.5105 28.7774C55.6314 30.1506 59.1269 28.7774 60.2504 31.7735C61.3739 34.7696 59.751 37.3912 56.8798 39.2637C53.5092 41.3859 56.8798 39.2637 56.8798 39.2637C56.8798 39.2637 52.885 41.6356 49.3896 43.8827L41.6497 47.7526C39.2778 49.2507 35.4079 51.7474 35.4079 51.7474C35.4079 51.7474 37.9046 50.1245 35.4079 51.7474C33.1608 53.1206 32.0373 55.118 32.9111 57.3651C33.785 59.6121 36.2817 58.4886 38.6536 59.6121C41.0255 60.7356 41.8994 63.3572 44.1464 62.4834C46.019 61.7343 47.1425 59.8618 46.8929 57.8644C47.0177 58.1141 46.8929 58.1141 46.8929 57.8644C46.8929 57.4899 46.768 57.1154 46.6432 56.8657C46.6432 56.8657 46.768 57.6147 46.8929 57.8644C46.8929 57.7396 46.768 57.365 46.6432 56.8657C46.1438 54.7435 44.6458 50.499 43.3974 47.3781L44.8955 46.6291C46.1438 49.75 47.8915 54.6186 48.6406 57.6147C48.7654 58.3637 48.8902 58.8631 49.0151 59.1128C49.2648 61.7343 47.7667 64.2311 45.27 65.2298C42.2739 66.3533 41.0255 62.8579 37.9046 61.3598C34.7837 59.9866 31.2883 61.3598 30.1647 58.3637C29.0412 55.3677 30.7889 52.9958 33.5353 50.8735C36.0321 48.8761 33.5353 50.8735 33.5353 50.8735C33.5353 50.8735 37.5301 48.252 41.4 46.3794L48.6406 42.2598Z" fill="white"/>
<path d="M49.889 57.8644C50.1386 57.7395 52.0112 61.4846 55.0073 64.1062C58.5027 67.352 61.1243 67.4768 61.1243 67.4768C61.1243 67.4768 60.2504 68.4755 59.002 69.2245C57.8785 69.9735 57.0047 70.0984 57.0047 70.0984C57.0047 70.0984 55.1321 68.4755 53.2595 65.4794C51.6367 62.8578 49.6393 58.114 49.889 57.8644Z" fill="white"/>
<path fill-rule="evenodd" clip-rule="evenodd" d="M83.9694 76.7146C86.0916 76.7146 87.7145 78.3375 87.7145 80.4597C87.7145 82.5819 86.0916 84.2048 83.9694 84.2048C81.8471 84.2048 80.0994 82.5819 80.0994 80.4597C80.2243 78.3375 81.8471 76.7146 83.9694 76.7146ZM83.9694 77.4636C82.3465 77.4636 81.0981 78.8368 81.0981 80.4597C81.0981 82.0826 82.3465 83.4558 83.9694 83.4558C85.5923 83.4558 86.8406 82.2074 86.8406 80.5845C86.8406 78.8368 85.5923 77.4636 83.9694 77.4636ZM83.47 82.3323H82.5962V78.5872C82.9707 78.5872 83.47 78.4623 83.9694 78.4623C84.7184 78.4623 84.9681 78.5871 85.2177 78.712C85.4674 78.8368 85.5922 79.0865 85.5922 79.461C85.5922 79.9604 85.2177 80.21 84.8432 80.3349C85.2177 80.4597 85.3426 80.7094 85.4674 81.2087C85.5922 81.8329 85.7171 81.9577 85.7171 82.0826H84.8432C84.7184 81.9577 84.7184 81.5832 84.5936 81.2087C84.4687 80.8342 84.3439 80.5845 83.8445 80.5845H83.47V82.3323ZM83.47 80.3349H83.8445C84.3439 80.3349 84.7184 80.21 84.7184 79.8355C84.7184 79.461 84.4687 79.2113 83.9694 79.2113C83.7197 79.2113 83.5949 79.2113 83.47 79.2113V80.3349Z" fill="white"/>
<path d="M160.619 47.1282C160.619 47.2531 160.619 47.5028 160.619 47.6276C160.619 48.1269 160.245 48.5014 159.496 48.7511C159.496 48.7511 158.871 48.876 157.623 49.0008C154.377 49.5001 151.007 49.8747 147.511 50.1243C145.764 53.2452 143.517 58.2387 140.895 65.2296C138.398 71.5963 136.526 76.9642 135.152 81.2087C134.778 82.5819 134.154 83.3309 133.654 83.3309C133.28 83.3309 132.531 83.0812 131.407 82.7067C131.033 82.5819 130.783 82.3322 130.783 81.9577C130.783 82.3322 130.908 81.708 131.033 80.3348C131.283 77.5884 131.907 75.2165 133.03 72.9695C133.405 72.0956 133.779 71.7211 134.279 71.7211C134.403 71.7211 134.653 71.7211 134.903 71.8459C135.152 71.9708 135.527 71.9708 135.652 71.9708C136.276 70.0982 137.774 66.3531 140.146 60.8603C142.767 54.6185 144.266 51.123 144.515 50.6237C141.644 50.8733 138.773 51.2479 135.901 51.9969C132.656 52.7459 130.533 53.6198 129.535 54.4936C128.286 55.4923 127.662 56.491 127.662 57.4897C127.537 58.4884 128.037 60.2361 129.035 62.3583C129.16 62.608 129.16 62.8577 129.16 62.9825C129.16 63.4819 128.911 63.7315 128.411 63.7315C128.162 63.7315 127.912 63.6067 127.662 63.2322C126.414 61.11 125.54 59.4871 125.29 58.3636C125.041 57.6145 124.916 56.3662 124.916 54.8681C124.916 52.6211 126.913 50.9982 130.908 49.8747C136.151 48.5015 141.269 47.6276 146.513 47.1282C147.262 45.8799 147.636 45.3805 148.011 45.3805C148.385 45.3805 149.134 45.8799 150.008 46.7537C150.507 46.7537 152.005 46.6289 154.502 46.2544C155.001 46.1296 155.376 45.8799 156 45.2557C156.5 44.7563 157.498 44.3818 158.996 44.3818C159.87 44.3818 160.369 44.6315 160.619 45.3805C160.245 45.006 160.369 45.755 160.619 47.1282Z" fill="#E15200" stroke="#E15200" stroke-miterlimit="10"/>
<path d="M170.107 64.855C169.982 66.4779 169.358 68.725 168.359 71.3466C166.736 75.591 164.864 78.9616 162.367 81.3335C161.119 82.5819 159.745 83.206 158.372 83.206C157.873 83.206 157.124 83.0812 156.25 82.8315C154.502 82.7067 153.129 82.2074 152.13 81.2087C151.007 80.0851 150.632 78.7119 150.882 77.089C151.132 75.0917 152.005 72.4701 153.628 68.9747C155.376 65.1047 156.999 62.4831 158.747 60.7354C159.496 59.9864 160.12 59.4871 160.619 59.4871C161.243 59.4871 162.242 60.1112 163.49 61.3596C163.865 61.2348 164.739 60.8603 165.987 60.3609C166.611 60.1112 167.111 60.1112 167.36 60.1112C168.109 60.1112 168.858 60.7354 169.607 62.1086C170.107 62.9825 170.232 63.8564 170.107 64.855ZM166.861 65.7289C167.111 64.4805 167.236 63.7315 167.236 63.357C167.36 62.608 167.111 62.2335 166.611 62.2335C166.486 62.2335 166.237 62.2335 165.862 62.3583L161.493 64.106C160.994 64.3557 160.744 64.3557 160.619 64.3557C160.494 64.3557 160.369 64.2309 160.245 63.8563C159.121 65.1047 157.873 67.1021 156.749 69.474C155.875 71.3466 155.251 73.0943 154.752 74.7171C154.502 75.7158 154.252 76.7145 154.252 77.5884C154.003 80.4596 154.752 81.8328 156.5 81.708C157.249 81.708 157.998 81.4583 158.871 80.8341C160.494 79.8355 162.117 77.7132 163.74 74.5923C165.363 71.4714 166.362 68.6001 166.861 65.7289Z" fill="#E15200" stroke="#E15200" stroke-miterlimit="10"/>
<path d="M201.815 62.8577C193.576 92.1943 184.962 106.8 175.974 106.8C172.728 106.8 169.358 105.052 165.862 101.432C165.488 101.058 165.363 100.808 165.488 100.434C165.488 99.9342 165.862 99.6845 166.362 99.6845C166.611 99.6845 166.861 99.8093 167.111 99.9342C169.857 102.431 172.479 103.804 174.851 103.804C182.466 103.804 189.706 92.6936 196.697 70.4727C193.202 75.7158 190.205 79.5858 187.709 81.8328C186.71 82.8315 185.836 83.206 185.087 83.206C184.463 83.206 183.589 82.8315 182.715 82.0825C181.092 81.2087 180.343 79.8355 180.593 77.8381C180.968 75.4662 182.091 72.4701 184.213 68.8498C186.211 65.3544 188.208 62.7328 190.205 60.9851C191.329 59.9864 192.328 59.4871 193.202 59.4871C193.826 59.4871 194.45 59.7367 195.199 60.3609C195.324 60.4858 195.948 61.1099 197.196 62.3583C197.446 62.608 197.571 62.8577 197.571 63.1073C197.571 63.4818 197.321 63.6067 196.822 63.6067C196.572 63.6067 196.198 63.4818 195.948 63.357C195.449 63.1073 194.949 62.8577 194.325 62.8577C193.576 62.8577 192.827 63.1073 192.203 63.7315C190.705 64.855 189.207 66.8524 187.459 69.474C185.587 72.3452 184.338 75.0917 183.839 77.4636C183.714 78.0877 183.589 78.7119 183.589 79.0864C183.464 80.4596 183.839 81.0838 184.463 81.0838C184.962 81.0838 185.462 80.8342 186.086 80.3348C188.458 78.4623 190.83 75.7158 193.326 72.2204C195.573 68.9747 197.321 65.9786 198.445 63.2322C198.819 62.2335 199.069 61.3596 199.194 60.4858C199.194 59.7367 199.443 59.4871 199.818 59.4871C200.192 59.4871 200.817 59.8616 201.815 60.6106C202.065 60.8603 202.19 61.6093 201.815 62.8577Z" fill="#E15200" stroke="#E15200" stroke-miterlimit="10"/>
<path d="M221.914 64.855C221.789 66.4779 221.165 68.725 220.166 71.3466C218.543 75.591 216.671 78.9616 214.174 81.3335C212.926 82.5819 211.553 83.206 210.179 83.206C209.68 83.206 208.931 83.0812 208.057 82.8315C206.309 82.7067 204.936 82.2074 203.938 81.2087C202.814 80.0851 202.439 78.7119 202.689 77.089C202.939 75.0917 203.813 72.4701 205.436 68.9747C207.183 65.1047 208.806 62.4831 210.554 60.7354C211.303 59.9864 211.927 59.4871 212.426 59.4871C213.051 59.4871 214.049 60.1112 215.298 61.3596C215.672 61.2348 216.546 60.8603 217.794 60.3609C218.419 60.1112 218.918 60.1112 219.168 60.1112C219.917 60.1112 220.666 60.7354 221.415 62.1086C221.914 62.9825 222.039 63.8564 221.914 64.855ZM218.668 65.7289C218.918 64.4805 219.043 63.7315 219.043 63.357C219.168 62.608 218.918 62.2335 218.419 62.2335C218.294 62.2335 218.044 62.2335 217.67 62.3583L213.3 64.106C212.801 64.3557 212.551 64.3557 212.426 64.3557C212.302 64.3557 212.177 64.2309 212.052 63.8563C210.928 65.1047 209.68 67.1021 208.557 69.474C207.683 71.3466 207.058 73.0943 206.559 74.7171C206.309 75.7158 206.06 76.7145 206.06 77.5884C205.81 80.4596 206.559 81.8328 208.307 81.708C209.056 81.708 209.805 81.4583 210.679 80.8341C212.302 79.8355 213.924 77.7132 215.547 74.5923C217.045 71.4714 218.169 68.6001 218.668 65.7289Z" fill="#E15200" stroke="#E15200" stroke-miterlimit="10"/>
</svg>
