<svg width="211" height="87" viewBox="0 0 211 87" fill="none" xmlns="http://www.w3.org/2000/svg">
<path d="M99.0633 27.1519V9.8519C99.0633 8.9519 99.5633 8.4519 100.463 8.4519H102.063C102.963 8.4519 103.463 8.9519 103.463 9.8519V27.2519C103.463 28.1519 102.963 28.6519 102.063 28.6519H100.463C99.5633 28.6519 99.0633 28.1519 99.0633 27.1519Z" fill="#003FA2"/>
<path d="M132.263 20.1519V27.2519C132.263 28.1519 131.763 28.6519 130.863 28.6519H129.463C128.563 28.6519 128.063 28.1519 128.063 27.2519V19.9519C128.063 17.7519 127.063 16.7519 125.063 16.7519C122.963 16.7519 122.263 17.7519 122.263 19.9519V27.2519C122.263 28.1519 121.763 28.6519 120.863 28.6519H119.463C118.563 28.6519 118.063 28.1519 118.063 27.2519V19.9519C118.063 17.7519 117.263 16.7519 115.263 16.7519C113.163 16.7519 112.263 17.7519 112.263 19.9519V27.2519C112.263 28.1519 111.763 28.6519 110.863 28.6519H109.463C108.563 28.6519 108.063 28.1519 108.063 27.2519V20.1519C108.063 14.9519 110.763 13.0519 114.963 13.0519C117.763 13.0519 119.363 13.8519 120.263 15.2519C121.163 13.8519 122.763 13.0519 125.563 13.0519C129.563 13.0519 132.263 14.9519 132.263 20.1519Z" fill="#003FA2"/>
<path d="M150.763 20.9519C150.763 26.8519 147.563 28.8519 142.063 28.8519C141.363 28.8519 140.663 28.8519 139.863 28.7519V33.3519C139.863 34.2519 139.363 34.7519 138.463 34.7519H136.963C136.063 34.7519 135.563 34.2519 135.563 33.3519V17.9519C135.563 14.4519 137.463 13.0519 142.063 13.0519C147.563 13.0519 150.763 15.0519 150.763 20.9519ZM146.463 20.9519C146.463 17.7519 145.263 16.6519 142.363 16.6519C140.163 16.6519 139.863 17.2519 139.863 18.7519V25.0519C140.763 25.1519 141.563 25.2519 142.263 25.2519C145.263 25.2519 146.463 24.1519 146.463 20.9519Z" fill="#003FA2"/>
<path d="M166.163 13.3519H167.663C168.563 13.3519 169.063 13.8519 169.063 14.7519V21.6519C169.063 27.2519 166.263 28.8519 161.363 28.8519C156.563 28.8519 153.663 27.2519 153.663 21.6519V14.7519C153.663 13.8519 154.163 13.3519 155.063 13.3519H156.563C157.463 13.3519 157.963 13.8519 157.963 14.7519V21.7519C157.963 24.4519 158.963 25.2519 161.263 25.2519C163.563 25.2519 164.563 24.4519 164.563 21.7519V14.7519C164.763 13.8519 165.263 13.3519 166.163 13.3519Z" fill="#003FA2"/>
<path d="M174.263 6.85193H175.763C176.663 6.85193 177.163 7.35193 177.163 8.25193V27.1519C177.163 28.0519 176.663 28.5519 175.763 28.5519H174.263C173.363 28.5519 172.863 28.0519 172.863 27.1519V8.25193C172.763 7.35193 173.263 6.85193 174.263 6.85193Z" fill="#003FA2"/>
<path d="M180.563 26.6519V26.252C180.563 25.252 181.163 24.7519 182.163 24.9519C185.763 25.6519 189.563 25.8519 189.563 24.1519C189.563 23.4519 189.063 23.1519 188.063 22.8519L184.763 22.0519C181.663 21.2519 180.363 19.752 180.363 17.652C180.363 13.252 186.063 12.352 191.463 13.652C192.263 13.852 192.663 14.4519 192.663 15.2519V15.652C192.663 16.652 192.063 17.0519 191.063 16.8519C188.063 16.1519 184.463 16.0519 184.463 17.4519C184.463 17.9519 184.863 18.3519 185.563 18.4519L189.063 19.3519C192.163 20.1519 193.563 21.6519 193.563 23.9519C193.563 28.7519 187.263 29.6519 181.663 28.1519C180.963 28.0519 180.563 27.5519 180.563 26.6519Z" fill="#003FA2"/>
<path d="M210.463 19.0519V24.1519C210.463 27.3519 208.963 28.6519 205.663 28.6519H202.163C198.363 28.6519 196.063 27.6519 196.063 23.9519C196.063 20.2519 198.363 19.2519 202.163 19.2519H206.163V19.0519C206.163 17.3519 204.763 16.5519 202.563 16.5519C201.463 16.5519 199.963 16.7519 198.563 17.0519C197.563 17.2519 196.963 16.7519 196.963 15.7519V15.1519C196.963 14.2519 197.463 13.7519 198.463 13.5519C200.163 13.1519 201.763 13.0519 203.163 13.0519C207.363 13.0519 210.463 14.8519 210.463 19.0519ZM206.163 23.9519V22.3519H202.363C200.463 22.3519 200.063 22.7519 200.063 23.9519C200.063 25.0519 200.463 25.5519 202.363 25.5519H204.663C205.963 25.5519 206.163 24.9519 206.163 23.9519Z" fill="#003FA2"/>
<path d="M86.1633 4.35193H84.2633V67.9519H86.1633V4.35193Z" fill="#003FA2"/>
<path d="M51.5633 16.7519L43.4633 1.05188L60.4633 2.65188L53.0633 6.65188L51.5633 16.7519Z" fill="#003FA2"/>
<path fill-rule="evenodd" clip-rule="evenodd" d="M36.1633 14.2518C48.1633 14.2518 57.9633 24.1518 57.9633 36.1518C57.9633 48.1518 48.1633 58.0518 36.1633 58.0518C24.1633 58.0518 14.3633 48.1518 14.3633 36.1518C14.3633 24.0518 24.1633 14.2518 36.1633 14.2518Z" fill="#E15200"/>
<path d="M59.2633 60.0519C54.3633 62.7519 49.4633 64.1519 48.7633 64.5519C48.6633 64.5519 48.6633 64.5519 48.5633 64.6519C48.7633 64.5519 48.9633 64.4519 49.1633 64.3519C48.9633 64.4519 48.7633 64.4519 48.6633 64.5519C40.2633 68.2519 30.2633 68.2519 21.5633 63.6519C6.36333 55.5519 0.563327 36.7519 8.56333 21.5519C8.56333 21.5519 9.46333 19.9519 9.86333 19.2519C10.5633 18.1519 11.6633 16.8519 11.6633 16.8519C11.6633 16.8519 9.06333 17.8519 5.16333 24.8519C1.96333 30.5519 0.163326 39.0519 0.163326 39.0519C1.16333 50.9519 7.96332 62.0519 19.2633 68.0519C36.9633 77.3519 58.7633 70.5519 68.0633 52.9519C68.0633 52.9519 64.7633 57.0519 59.2633 60.0519Z" fill="#003FA2"/>
<path d="M41.9633 4.75188C41.2633 3.35188 40.4633 1.95188 39.8633 0.45188C39.8633 0.35188 39.7633 0.25188 39.7633 0.15188C25.4633 -1.14812 11.1633 5.95188 4.16333 19.3519C4.16333 19.3519 1.96333 22.6519 0.663327 29.2519C-0.436673 34.9519 0.163327 39.2519 0.163327 39.2519C0.163327 39.2519 2.06333 30.5519 5.16333 24.8519C9.06333 17.7519 11.6633 16.8519 11.6633 16.8519C18.9633 7.55188 31.0633 3.35188 42.4633 5.65188C42.2633 5.35188 42.0633 5.05188 41.9633 4.75188Z" fill="#003FA2"/>
<path d="M52.9633 4.25186C50.8633 3.15186 48.7633 2.35186 46.6633 1.65186C47.0633 2.35186 47.4633 3.05186 47.8633 3.75186C48.4633 4.85186 48.9633 6.05186 49.6633 7.25186C49.9633 7.75186 50.2633 8.15186 50.4633 8.65186C50.4633 8.65186 50.5633 8.65186 50.5633 8.75186C65.7633 16.7519 71.6633 35.6519 63.6633 50.8519C60.2633 57.3519 54.8633 62.1519 48.5633 64.8519C48.6633 64.8519 48.6633 64.8519 48.7633 64.7519C49.5633 64.4519 54.4633 62.9519 59.2633 60.2519C64.7633 57.2519 68.0633 53.0519 68.0633 53.0519C77.3633 35.3519 70.6633 13.5519 52.9633 4.25186Z" fill="#003FA2"/>
<path d="M25.3633 37.2519C23.7633 37.4519 22.2633 36.5519 21.6633 35.0519C20.9633 33.2519 23.0633 32.5519 23.9633 30.6519C24.8633 28.7519 23.9633 26.7518 25.7633 26.0518C27.5633 25.3518 29.2633 26.2518 30.2633 28.0518C31.2633 29.8518 30.2633 28.0518 30.2633 28.0518C30.2633 28.0518 32.7633 33.5519 33.9633 36.2519L35.0633 35.6518C33.8633 32.7518 30.9633 26.5518 30.9633 26.5518C30.9633 26.5518 32.2633 29.0518 30.9633 26.5518C29.6633 24.0518 27.3633 22.9518 24.9633 23.8518C22.5633 24.7518 23.6633 27.5518 22.5633 30.0518C21.4633 32.5518 18.5633 33.4519 19.4633 35.9519C20.2633 37.9519 22.2633 39.1519 24.3633 38.9519C24.5633 38.9519 24.8633 38.8518 25.5633 38.6518C26.9633 38.3518 28.7633 37.7519 30.5633 37.2519C30.9633 37.1519 30.7633 36.5518 30.4633 36.6518C27.9633 36.8518 25.1633 37.2519 25.3633 37.2519Z" fill="white"/>
<path d="M49.6633 42.2519C50.7633 39.7519 53.6633 38.8519 52.7633 36.3519C51.9633 34.3519 49.9633 33.1519 47.8633 33.3519C47.6633 33.3519 47.3633 33.4519 46.6633 33.6519C45.3633 33.9519 44.1633 34.3519 42.8633 34.7519C42.5633 34.8519 42.7633 35.2519 42.9633 35.1519C44.3633 34.8519 45.9633 34.5519 47.0633 34.4519C48.6633 34.2519 50.0633 35.6519 50.5633 37.2519C51.2633 39.0519 49.1633 39.7519 48.2633 41.6519C47.3633 43.5519 48.2633 45.5519 46.4633 46.2519C44.6633 46.9519 42.9633 46.0519 41.9633 44.2519C40.9633 42.3519 41.9633 44.2519 41.9633 44.2519C41.9633 44.2519 39.3633 38.0519 38.4633 36.0519L37.1633 36.7519C38.2633 39.4519 41.1633 45.7519 41.1633 45.7519C41.1633 45.7519 39.8633 43.2519 41.1633 45.7519C42.4633 48.2519 44.7633 49.3519 47.1633 48.4519C49.6633 47.5519 48.4633 44.7519 49.6633 42.2519Z" fill="white"/>
<path d="M38.9633 33.8519C41.0633 32.6519 44.0633 30.7519 44.0633 30.7519C44.0633 30.7519 41.4633 32.3519 44.0633 30.7519C45.8633 29.6519 46.7633 28.0519 46.0633 26.2519C45.3633 24.4519 43.3633 25.3519 41.4633 24.4519C39.5633 23.5519 38.8633 21.4519 37.0633 22.1519C35.5633 22.7519 34.6633 24.2519 34.8633 25.8519C34.7633 25.6519 34.8633 25.6519 34.8633 25.8519C34.8633 26.1519 34.9633 26.4519 35.0633 26.6519C35.0633 26.6519 34.9633 26.0519 34.8633 25.8519C34.8633 25.9519 34.9633 26.2519 35.0633 26.6519C35.4633 28.3519 37.0633 32.7519 37.7633 34.1519L36.3633 34.8519C35.4633 32.1519 34.0633 28.4519 33.4633 26.0519C33.3633 25.4519 33.2633 25.0519 33.1633 24.8519C32.9633 22.7519 34.1633 20.7519 36.1633 19.9519C38.5633 19.0519 39.5633 21.8519 42.0633 23.0519C44.5633 24.1519 47.3633 23.0519 48.2633 25.4519C49.1633 27.8519 47.8633 29.9519 45.5633 31.4519C42.8633 33.1519 45.5633 31.4519 45.5633 31.4519C45.5633 31.4519 42.3633 33.3519 39.5633 35.1519L33.3633 38.2519C31.4633 39.4519 28.3633 41.4519 28.3633 41.4519C28.3633 41.4519 30.3633 40.1519 28.3633 41.4519C26.5633 42.5519 25.6633 44.1519 26.3633 45.9519C27.0633 47.7519 29.0633 46.8519 30.9633 47.7519C32.8633 48.6519 33.5633 50.7519 35.3633 50.0519C36.8633 49.4519 37.7633 47.9519 37.5633 46.3519C37.6633 46.5519 37.5633 46.5519 37.5633 46.3519C37.5633 46.0519 37.4633 45.7519 37.3633 45.5519C37.3633 45.5519 37.4633 46.1519 37.5633 46.3519C37.5633 46.2519 37.4633 45.9519 37.3633 45.5519C36.9633 43.8519 35.7633 40.4519 34.7633 37.9519L35.9633 37.3519C36.9633 39.8519 38.3633 43.7519 38.9633 46.1519C39.0633 46.7519 39.1633 47.1519 39.2633 47.3519C39.4633 49.4519 38.2633 51.4519 36.2633 52.2519C33.8633 53.1519 32.8633 50.3519 30.3633 49.1519C27.8633 48.0519 25.0633 49.1519 24.1633 46.7519C23.2633 44.3519 24.6633 42.4519 26.8633 40.7519C28.8633 39.1519 26.8633 40.7519 26.8633 40.7519C26.8633 40.7519 30.0633 38.6519 33.1633 37.1519L38.9633 33.8519Z" fill="white"/>
<path d="M39.9633 46.3519C40.1633 46.2519 41.6633 49.2519 44.0633 51.3519C46.8633 53.9519 48.9633 54.0519 48.9633 54.0519C48.9633 54.0519 48.2633 54.8519 47.2633 55.4519C46.3633 56.0519 45.6633 56.1519 45.6633 56.1519C45.6633 56.1519 44.1633 54.8519 42.6633 52.4519C41.3633 50.3519 39.7633 46.5519 39.9633 46.3519Z" fill="white"/>
<path fill-rule="evenodd" clip-rule="evenodd" d="M67.2633 61.4519C68.9633 61.4519 70.2633 62.7519 70.2633 64.4519C70.2633 66.1519 68.9633 67.4519 67.2633 67.4519C65.5633 67.4519 64.1633 66.1519 64.1633 64.4519C64.2633 62.7519 65.5633 61.4519 67.2633 61.4519ZM67.2633 62.0519C65.9633 62.0519 64.9633 63.1519 64.9633 64.4519C64.9633 65.7519 65.9633 66.8519 67.2633 66.8519C68.5633 66.8519 69.5633 65.8519 69.5633 64.5519C69.5633 63.1519 68.5633 62.0519 67.2633 62.0519ZM66.8633 65.9519H66.1633V62.9519C66.4633 62.9519 66.8633 62.8519 67.2633 62.8519C67.8633 62.8519 68.0633 62.9519 68.2633 63.0519C68.4633 63.1519 68.5633 63.3519 68.5633 63.6519C68.5633 64.0519 68.2633 64.2519 67.9633 64.3519C68.2633 64.4519 68.3633 64.6519 68.4633 65.0519C68.5633 65.5519 68.6633 65.6519 68.6633 65.7519H67.9633C67.8633 65.6519 67.8633 65.3519 67.7633 65.0519C67.6633 64.7519 67.5633 64.5519 67.1633 64.5519H66.8633V65.9519ZM66.8633 64.3519H67.1633C67.5633 64.3519 67.8633 64.2519 67.8633 63.9519C67.8633 63.6519 67.6633 63.4519 67.2633 63.4519C67.0633 63.4519 66.9633 63.4519 66.8633 63.4519V64.3519Z" fill="#003FA2"/>
<path d="M128.663 37.7519C128.663 37.8519 128.663 38.0519 128.663 38.1519C128.663 38.5519 128.363 38.8519 127.763 39.0519C127.763 39.0519 127.263 39.1519 126.263 39.2519C123.663 39.6519 120.963 39.9519 118.163 40.1519C116.763 42.6519 114.963 46.6519 112.863 52.2519C110.863 57.3519 109.363 61.6519 108.263 65.0519C107.963 66.1519 107.463 66.7519 107.063 66.7519C106.763 66.7519 106.163 66.5519 105.263 66.2519C104.963 66.1519 104.763 65.9519 104.763 65.6519C104.763 65.9519 104.863 65.4519 104.963 64.3519C105.163 62.1519 105.663 60.2519 106.563 58.4519C106.863 57.7519 107.163 57.4519 107.563 57.4519C107.663 57.4519 107.863 57.4519 108.063 57.5519C108.263 57.6519 108.563 57.6519 108.663 57.6519C109.163 56.1519 110.363 53.1519 112.263 48.7519C114.363 43.7519 115.563 40.9519 115.763 40.5519C113.463 40.7519 111.163 41.0519 108.863 41.6519C106.263 42.2519 104.563 42.9519 103.763 43.6519C102.763 44.4519 102.263 45.2519 102.263 46.0519C102.163 46.8519 102.563 48.2519 103.363 49.9519C103.463 50.1519 103.463 50.3519 103.463 50.4519C103.463 50.8519 103.263 51.0519 102.863 51.0519C102.663 51.0519 102.463 50.9519 102.263 50.6519C101.263 48.9519 100.563 47.6519 100.363 46.7519C100.163 46.1519 100.063 45.1519 100.063 43.9519C100.063 42.1519 101.663 40.8519 104.863 39.9519C109.063 38.8519 113.163 38.1519 117.363 37.7519C117.963 36.7519 118.263 36.3519 118.563 36.3519C118.863 36.3519 119.463 36.7519 120.163 37.4519C120.563 37.4519 121.763 37.3519 123.763 37.0519C124.163 36.9519 124.463 36.7519 124.963 36.2519C125.363 35.8519 126.163 35.5519 127.363 35.5519C128.063 35.5519 128.463 35.7519 128.663 36.3519C128.363 36.0519 128.463 36.6519 128.663 37.7519Z" fill="#E15200" stroke="#E15200" stroke-miterlimit="10"/>
<path d="M136.263 51.9519C136.163 53.2519 135.663 55.0519 134.863 57.1519C133.563 60.5519 132.063 63.2519 130.063 65.1519C129.063 66.1519 127.963 66.6519 126.863 66.6519C126.463 66.6519 125.863 66.5519 125.163 66.3519C123.763 66.2519 122.663 65.8519 121.863 65.0519C120.963 64.1519 120.663 63.0519 120.863 61.7519C121.063 60.1519 121.763 58.0519 123.063 55.2519C124.463 52.1519 125.763 50.0519 127.163 48.6519C127.763 48.0519 128.263 47.6519 128.663 47.6519C129.163 47.6519 129.963 48.1519 130.963 49.1519C131.263 49.0519 131.963 48.7519 132.963 48.3519C133.463 48.1519 133.863 48.1519 134.063 48.1519C134.663 48.1519 135.263 48.6519 135.863 49.7519C136.263 50.4519 136.363 51.1519 136.263 51.9519ZM133.663 52.6519C133.863 51.6519 133.963 51.0519 133.963 50.7519C134.063 50.1519 133.863 49.8519 133.463 49.8519C133.363 49.8519 133.163 49.8519 132.863 49.9519L129.363 51.3519C128.963 51.5519 128.763 51.5519 128.663 51.5519C128.563 51.5519 128.463 51.4519 128.363 51.1519C127.463 52.1519 126.463 53.7519 125.563 55.6519C124.863 57.1519 124.363 58.5519 123.963 59.8519C123.763 60.6519 123.563 61.4519 123.563 62.1519C123.363 64.4519 123.963 65.5519 125.363 65.4519C125.963 65.4519 126.563 65.2519 127.263 64.7519C128.563 63.9519 129.863 62.2519 131.163 59.7519C132.463 57.2519 133.263 54.9519 133.663 52.6519Z" fill="#E15200" stroke="#E15200" stroke-miterlimit="10"/>
<path d="M161.663 50.3519C155.063 73.8519 148.163 85.5519 140.963 85.5519C138.363 85.5519 135.663 84.1519 132.863 81.2519C132.563 80.9519 132.463 80.7519 132.563 80.4519C132.563 80.0519 132.863 79.8519 133.263 79.8519C133.463 79.8519 133.663 79.9519 133.863 80.0519C136.063 82.0519 138.163 83.1519 140.063 83.1519C146.163 83.1519 151.963 74.2519 157.563 56.4519C154.763 60.6519 152.363 63.7519 150.363 65.5519C149.563 66.3519 148.863 66.6519 148.263 66.6519C147.763 66.6519 147.063 66.3519 146.363 65.7519C145.063 65.0519 144.463 63.9519 144.663 62.3519C144.963 60.4519 145.863 58.0519 147.563 55.1519C149.163 52.3519 150.763 50.2519 152.363 48.8519C153.263 48.0519 154.063 47.6519 154.763 47.6519C155.263 47.6519 155.763 47.8519 156.363 48.3519C156.463 48.4519 156.963 48.9519 157.963 49.9519C158.163 50.1519 158.263 50.3519 158.263 50.5519C158.263 50.8519 158.063 50.9519 157.663 50.9519C157.463 50.9519 157.163 50.8519 156.963 50.7519C156.563 50.5519 156.163 50.3519 155.663 50.3519C155.063 50.3519 154.463 50.5519 153.963 51.0519C152.763 51.9519 151.563 53.5519 150.163 55.6519C148.663 57.9519 147.663 60.1519 147.263 62.0519C147.163 62.5519 147.063 63.0519 147.063 63.3519C146.963 64.4519 147.263 64.9519 147.763 64.9519C148.163 64.9519 148.563 64.7519 149.063 64.3519C150.963 62.8519 152.863 60.6519 154.863 57.8519C156.663 55.2519 158.063 52.8519 158.963 50.6519C159.263 49.8519 159.463 49.1519 159.563 48.4519C159.563 47.8519 159.763 47.6519 160.063 47.6519C160.363 47.6519 160.863 47.9519 161.663 48.5519C161.863 48.7519 161.963 49.3519 161.663 50.3519Z" fill="#E15200" stroke="#E15200" stroke-miterlimit="10"/>
<path d="M177.763 51.9519C177.663 53.2519 177.163 55.0519 176.363 57.1519C175.063 60.5519 173.563 63.2519 171.563 65.1519C170.563 66.1519 169.463 66.6519 168.363 66.6519C167.963 66.6519 167.363 66.5519 166.663 66.3519C165.263 66.2519 164.163 65.8519 163.363 65.0519C162.463 64.1519 162.163 63.0519 162.363 61.7519C162.563 60.1519 163.263 58.0519 164.563 55.2519C165.963 52.1519 167.263 50.0519 168.663 48.6519C169.263 48.0519 169.763 47.6519 170.163 47.6519C170.663 47.6519 171.463 48.1519 172.463 49.1519C172.763 49.0519 173.463 48.7519 174.463 48.3519C174.963 48.1519 175.363 48.1519 175.563 48.1519C176.163 48.1519 176.763 48.6519 177.363 49.7519C177.763 50.4519 177.863 51.1519 177.763 51.9519ZM175.163 52.6519C175.363 51.6519 175.463 51.0519 175.463 50.7519C175.563 50.1519 175.363 49.8519 174.963 49.8519C174.863 49.8519 174.663 49.8519 174.363 49.9519L170.863 51.3519C170.463 51.5519 170.263 51.5519 170.163 51.5519C170.063 51.5519 169.963 51.4519 169.863 51.1519C168.963 52.1519 167.963 53.7519 167.063 55.6519C166.363 57.1519 165.863 58.5519 165.463 59.8519C165.263 60.6519 165.063 61.4519 165.063 62.1519C164.863 64.4519 165.463 65.5519 166.863 65.4519C167.463 65.4519 168.063 65.2519 168.763 64.7519C170.063 63.9519 171.363 62.2519 172.663 59.7519C173.863 57.2519 174.763 54.9519 175.163 52.6519Z" fill="#E15200" stroke="#E15200" stroke-miterlimit="10"/>
</svg>
