<svg width="135" height="202" viewBox="0 0 135 202" fill="none" xmlns="http://www.w3.org/2000/svg">
<path d="M-6.10352e-05 125.357V104.534C-6.10352e-05 103.451 0.601737 102.849 1.68497 102.849H3.61072C4.69395 102.849 5.29575 103.451 5.29575 104.534V125.477C5.29575 126.56 4.69395 127.162 3.61072 127.162H1.68497C0.601737 127.162 -6.10352e-05 126.56 -6.10352e-05 125.357Z" fill="#003FA2"/>
<path d="M39.9592 116.931V125.477C39.9592 126.56 39.3574 127.162 38.2742 127.162H36.5892C35.5059 127.162 34.9041 126.56 34.9041 125.477V116.691C34.9041 114.043 33.7005 112.839 31.2934 112.839C28.7658 112.839 27.9233 114.043 27.9233 116.691V125.477C27.9233 126.56 27.3215 127.162 26.2383 127.162H24.5532C23.47 127.162 22.8682 126.56 22.8682 125.477V116.691C22.8682 114.043 21.9053 112.839 19.4981 112.839C16.9706 112.839 15.8874 114.043 15.8874 116.691V125.477C15.8874 126.56 15.2856 127.162 14.2023 127.162H12.5173C11.4341 127.162 10.8323 126.56 10.8323 125.477V116.931C10.8323 110.673 14.082 108.386 19.1371 108.386C22.5071 108.386 24.4329 109.349 25.5161 111.034C26.5993 109.349 28.5251 108.386 31.8951 108.386C36.7095 108.386 39.9592 110.673 39.9592 116.931Z" fill="#003FA2"/>
<path d="M62.2257 117.894C62.2257 124.995 58.3742 127.403 51.7544 127.403C50.9119 127.403 50.0694 127.403 49.1065 127.282V132.819C49.1065 133.902 48.5047 134.504 47.4215 134.504H45.6161C44.5329 134.504 43.9311 133.902 43.9311 132.819V114.283C43.9311 110.071 46.2179 108.386 51.7544 108.386C58.3742 108.386 62.2257 110.793 62.2257 117.894ZM57.0502 117.894C57.0502 114.043 55.6059 112.719 52.1155 112.719C49.4676 112.719 49.1065 113.441 49.1065 115.246V122.829C50.1898 122.949 51.1526 123.07 51.9952 123.07C55.6059 123.07 57.0502 121.746 57.0502 117.894Z" fill="#003FA2"/>
<path d="M80.761 108.747H82.5664C83.6496 108.747 84.2514 109.349 84.2514 110.432V118.737C84.2514 125.477 80.8813 127.403 74.9837 127.403C69.2065 127.403 65.7161 125.477 65.7161 118.737V110.432C65.7161 109.349 66.3179 108.747 67.4011 108.747H69.2065C70.2897 108.747 70.8915 109.349 70.8915 110.432V118.857C70.8915 122.107 72.0951 123.07 74.8634 123.07C77.6316 123.07 78.8352 122.107 78.8352 118.857V110.432C79.076 109.349 79.6777 108.747 80.761 108.747Z" fill="#003FA2"/>
<path d="M90.5102 100.923H92.3155C93.3988 100.923 94.0006 101.525 94.0006 102.608V125.356C94.0006 126.44 93.3988 127.041 92.3155 127.041H90.5102C89.4269 127.041 88.8251 126.44 88.8251 125.356V102.608C88.7048 101.525 89.3066 100.923 90.5102 100.923Z" fill="#003FA2"/>
<path d="M98.0928 124.754V124.273C98.0928 123.069 98.815 122.468 100.019 122.708C104.352 123.551 108.925 123.792 108.925 121.746C108.925 120.903 108.323 120.542 107.12 120.181L103.148 119.218C99.4168 118.255 97.8521 116.45 97.8521 113.922C97.8521 108.626 104.713 107.543 111.212 109.108C112.175 109.349 112.656 110.071 112.656 111.034V111.515C112.656 112.719 111.934 113.2 110.731 112.959C107.12 112.117 102.787 111.996 102.787 113.681C102.787 114.283 103.268 114.765 104.111 114.885L108.323 115.968C112.055 116.931 113.74 118.737 113.74 121.505C113.74 127.282 106.157 128.365 99.4168 126.56C98.5743 126.44 98.0928 125.838 98.0928 124.754Z" fill="#003FA2"/>
<path d="M134.08 115.607V121.746C134.08 125.597 132.275 127.162 128.303 127.162H124.09C119.517 127.162 116.748 125.958 116.748 121.505C116.748 117.052 119.517 115.848 124.09 115.848H128.905V115.607C128.905 113.561 127.22 112.598 124.572 112.598C123.248 112.598 121.442 112.839 119.757 113.2C118.554 113.441 117.832 112.839 117.832 111.635V110.913C117.832 109.83 118.433 109.228 119.637 108.988C121.683 108.506 123.609 108.386 125.294 108.386C130.349 108.386 134.08 110.552 134.08 115.607ZM128.905 121.505V119.579H124.331C122.044 119.579 121.563 120.061 121.563 121.505C121.563 122.829 122.044 123.431 124.331 123.431H127.099C128.664 123.431 128.905 122.708 128.905 121.505Z" fill="#003FA2"/>
<path d="M86.1332 20.1625L76.3841 1.26611L96.8452 3.19186L87.9386 8.00623L86.1332 20.1625Z" fill="#003FA2"/>
<path fill-rule="evenodd" clip-rule="evenodd" d="M67.5978 17.1536C82.0409 17.1536 93.8361 29.0691 93.8361 43.5122C93.8361 57.9554 82.0409 69.8709 67.5978 69.8709C53.1546 69.8709 41.3594 57.9554 41.3594 43.5122C41.3594 28.9488 53.1546 17.1536 67.5978 17.1536Z" fill="#E15200"/>
<path d="M95.4008 72.2779C89.5032 75.5276 83.6056 77.2127 82.7631 77.6941C82.6427 77.6941 82.6427 77.6941 82.5224 77.8144C82.7631 77.6941 83.0038 77.5737 83.2445 77.4534C83.0038 77.5737 82.7631 77.5737 82.6427 77.6941C72.5325 82.1474 60.4966 82.1474 50.0253 76.6109C31.7307 66.8618 24.7499 44.2342 34.3786 25.9396C34.3786 25.9396 35.4619 24.0139 35.9433 23.1713C36.7858 21.8474 38.1098 20.2827 38.1098 20.2827C38.1098 20.2827 34.9804 21.4863 30.2864 29.9115C26.4349 36.7719 24.2685 47.0025 24.2685 47.0025C25.4721 61.3252 33.6565 74.6851 47.2571 81.9067C68.5607 93.1001 94.799 84.9156 105.992 63.7324C105.992 63.7324 102.021 68.6671 95.4008 72.2779Z" fill="#003FA2"/>
<path d="M74.5786 5.71933C73.7361 4.0343 72.7732 2.34927 72.0511 0.54388C72.0511 0.423521 71.9307 0.303161 71.9307 0.182802C54.7193 -1.38187 37.5079 7.16364 29.0828 23.2918C29.0828 23.2918 26.4349 27.2636 24.8702 35.2074C23.5463 42.0678 24.2684 47.2433 24.2684 47.2433C24.2684 47.2433 26.5552 36.772 30.2864 29.9115C34.9804 21.366 38.1097 20.2828 38.1097 20.2828C46.896 9.08939 61.4594 4.0343 75.1804 6.80256C74.9397 6.44148 74.699 6.08041 74.5786 5.71933Z" fill="#003FA2"/>
<path d="M87.8182 5.11762C85.2906 3.79367 82.7631 2.8308 80.2355 1.98828C80.717 2.8308 81.1984 3.67331 81.6798 4.51583C82.402 5.83978 83.0038 7.28409 83.8463 8.7284C84.2074 9.3302 84.5685 9.81164 84.8092 10.4134C84.8092 10.4134 84.9295 10.4134 84.9295 10.5338C103.224 20.1625 110.325 42.9104 100.697 61.205C96.6044 69.0284 90.105 74.8056 82.5224 78.0554C82.6427 78.0554 82.6427 78.0553 82.7631 77.935C83.726 77.5739 89.6236 75.7685 95.4008 72.5188C102.021 68.908 105.992 63.853 105.992 63.853C117.186 42.5494 109.122 16.311 87.8182 5.11762Z" fill="#003FA2"/>
<path d="M54.5991 44.8361C52.6734 45.0769 50.868 43.9936 50.1458 42.1882C49.3033 40.0218 51.8309 39.1793 52.9141 36.8924C53.9973 34.6056 52.9141 32.1984 55.0806 31.3559C57.247 30.5134 59.2931 31.5966 60.4967 33.7631C61.7003 35.9296 60.4967 33.7631 60.4967 33.7631C60.4967 33.7631 63.5057 40.3829 64.95 43.6326L66.274 42.9104C64.8297 39.42 61.3393 31.9577 61.3393 31.9577C61.3393 31.9577 62.9039 34.9667 61.3393 31.9577C59.7746 28.9487 57.0063 27.6248 54.1177 28.708C51.2291 29.7912 52.553 33.1613 51.2291 36.1703C49.9051 39.1793 46.4147 40.2625 47.4979 43.2715C48.4608 45.6787 50.868 47.123 53.3955 46.8823C53.6363 46.8823 53.9973 46.7619 54.8399 46.5212C56.5249 46.1601 58.6914 45.4379 60.8578 44.8361C61.3393 44.7158 61.0985 43.9936 60.7375 44.114C57.7285 44.3547 54.3584 44.8361 54.5991 44.8361Z" fill="white"/>
<path d="M83.8464 50.8542C85.1703 47.8453 88.6607 46.762 87.5775 43.7531C86.6146 41.3459 84.2074 39.9016 81.6799 40.1423C81.4392 40.1423 81.0781 40.2626 80.2356 40.5033C78.6709 40.8644 77.2266 41.3459 75.6619 41.8273C75.3009 41.9477 75.5416 42.4291 75.7823 42.3087C77.4673 41.9477 79.3931 41.5866 80.717 41.4662C82.6428 41.2255 84.3278 42.9105 84.9296 44.8363C85.7721 47.0028 83.2446 47.8453 82.1613 50.1321C81.0781 52.4189 82.1613 54.8261 79.9949 55.6686C77.8284 56.5111 75.7823 55.4279 74.5787 53.2614C73.3751 50.9746 74.5787 53.2614 74.5787 53.2614C74.5787 53.2614 71.4494 45.7992 70.3661 43.392L68.8015 44.2345C70.1254 47.4842 73.6158 55.0668 73.6158 55.0668C73.6158 55.0668 72.0512 52.0578 73.6158 55.0668C75.1805 58.0758 77.9488 59.3998 80.8374 58.3165C83.8464 57.2333 82.4021 53.8632 83.8464 50.8542Z" fill="white"/>
<path d="M70.9679 40.7438C73.4955 39.2995 77.1062 37.0127 77.1062 37.0127C77.1062 37.0127 73.9769 38.9385 77.1062 37.0127C79.2727 35.6888 80.3559 33.763 79.5134 31.5965C78.6709 29.4301 76.2637 30.5133 73.9769 29.4301C71.6901 28.3468 70.8476 25.8193 68.6811 26.6618C66.8757 27.384 65.7925 29.1893 66.0332 31.1151C65.9128 30.8744 66.0332 30.8744 66.0332 31.1151C66.0332 31.4762 66.1536 31.8373 66.2739 32.078C66.2739 32.078 66.1536 31.3558 66.0332 31.1151C66.0332 31.2355 66.1536 31.5965 66.2739 32.078C66.7554 34.1241 68.6811 39.4199 69.5236 41.1049L67.8386 41.9474C66.7554 38.6977 65.0703 34.2444 64.3482 31.3558C64.2278 30.6337 64.1074 30.1522 63.9871 29.9115C63.7464 27.384 65.1907 24.9768 67.5979 24.0139C70.4865 22.9307 71.6901 26.3007 74.6991 27.745C77.708 29.069 81.0781 27.745 82.1613 30.6337C83.2446 33.5223 81.6799 36.0498 78.9116 37.8552C75.6619 39.9013 78.9116 37.8552 78.9116 37.8552C78.9116 37.8552 75.0601 40.142 71.6901 42.3085L64.2278 46.0396C61.941 47.484 58.2098 49.8911 58.2098 49.8911C58.2098 49.8911 60.617 48.3265 58.2098 49.8911C56.0434 51.2151 54.9601 53.1408 55.8027 55.3073C56.6452 57.4738 59.0524 56.3905 61.3392 57.4738C63.626 58.557 64.4685 61.0846 66.635 60.242C68.4404 59.5199 69.5236 57.7145 69.2829 55.7887C69.4033 56.0295 69.2829 56.0295 69.2829 55.7887C69.2829 55.4277 69.1625 55.0666 69.0422 54.8259C69.0422 54.8259 69.1625 55.548 69.2829 55.7887C69.2829 55.6684 69.1625 55.3073 69.0422 54.8259C68.5607 52.7798 67.1164 48.6876 65.9128 45.6786L67.3571 44.9564C68.5607 47.9654 70.2458 52.6594 70.9679 55.548C71.0883 56.2702 71.2086 56.7516 71.329 56.9923C71.5697 59.5199 70.1254 61.9271 67.7182 62.8899C64.8296 63.9732 63.626 60.6031 60.617 59.1588C57.608 57.8349 54.238 59.1588 53.1548 56.2702C52.0715 53.3816 53.7565 51.0947 56.4045 49.0486C58.8116 47.1229 56.4045 49.0486 56.4045 49.0486C56.4045 49.0486 60.256 46.5211 63.9871 44.7157L70.9679 40.7438Z" fill="white"/>
<path d="M72.1715 55.7886C72.4122 55.6682 74.2176 59.279 77.1062 61.8065C80.4762 64.9359 83.0038 65.0562 83.0038 65.0562C83.0038 65.0562 82.1613 66.0191 80.9577 66.7413C79.8744 67.4634 79.0319 67.5838 79.0319 67.5838C79.0319 67.5838 77.2265 66.0191 75.4212 63.1305C73.8565 60.603 71.9307 56.0293 72.1715 55.7886Z" fill="white"/>
<path fill-rule="evenodd" clip-rule="evenodd" d="M105.03 73.9631C107.076 73.9631 108.64 75.5278 108.64 77.5739C108.64 79.62 107.076 81.1847 105.03 81.1847C102.983 81.1847 101.298 79.62 101.298 77.5739C101.419 75.5278 102.983 73.9631 105.03 73.9631ZM105.03 74.6853C103.465 74.6853 102.261 76.0092 102.261 77.5739C102.261 79.1386 103.465 80.4625 105.03 80.4625C106.594 80.4625 107.798 79.2589 107.798 77.6943C107.798 76.0092 106.594 74.6853 105.03 74.6853ZM104.548 79.3793H103.706V75.7685C104.067 75.7685 104.548 75.6482 105.03 75.6482C105.752 75.6482 105.992 75.7685 106.233 75.8889C106.474 76.0092 106.594 76.25 106.594 76.611C106.594 77.0925 106.233 77.3332 105.872 77.4536C106.233 77.5739 106.353 77.8146 106.474 78.2961C106.594 78.8979 106.715 79.0182 106.715 79.1386H105.872C105.752 79.0182 105.752 78.6571 105.631 78.2961C105.511 77.935 105.391 77.6943 104.909 77.6943H104.548V79.3793ZM104.548 77.4536H104.909C105.391 77.4536 105.752 77.3332 105.752 76.9721C105.752 76.611 105.511 76.3703 105.03 76.3703C104.789 76.3703 104.668 76.3703 104.548 76.3703V77.4536Z" fill="#003FA2"/>
<path d="M54.8838 143.468C54.8838 143.589 54.8838 143.829 54.8838 143.95C54.8838 144.431 54.5228 144.792 53.8006 145.033C53.8006 145.033 53.1988 145.153 51.9952 145.274C48.8659 145.755 45.6162 146.116 42.2461 146.357C40.5611 149.366 38.3946 154.18 35.8671 160.92C33.4599 167.059 31.6545 172.234 30.3306 176.326C29.9695 177.65 29.3677 178.372 28.8862 178.372C28.5252 178.372 27.803 178.132 26.7198 177.771C26.3587 177.65 26.118 177.41 26.118 177.048C26.118 177.41 26.2383 176.808 26.3587 175.484C26.5994 172.836 27.2012 170.549 28.2844 168.383C28.6455 167.54 29.0066 167.179 29.488 167.179C29.6084 167.179 29.8491 167.179 30.0898 167.299C30.3306 167.42 30.6916 167.42 30.812 167.42C31.4138 165.614 32.8581 162.004 35.1449 156.708C37.6725 150.69 39.1168 147.32 39.3575 146.838C36.5892 147.079 33.821 147.44 31.0527 148.162C27.9234 148.884 25.8773 149.727 24.9144 150.569C23.7108 151.532 23.109 152.495 23.109 153.458C22.9886 154.421 23.4701 156.106 24.433 158.152C24.5533 158.393 24.5533 158.633 24.5533 158.754C24.5533 159.235 24.3126 159.476 23.8312 159.476C23.5904 159.476 23.3497 159.356 23.109 158.995C21.9054 156.948 21.0629 155.384 20.8222 154.301C20.5815 153.578 20.4611 152.375 20.4611 150.93C20.4611 148.764 22.3868 147.199 26.2383 146.116C31.2934 144.792 36.2282 143.95 41.2832 143.468C42.0054 142.265 42.3665 141.783 42.7276 141.783C43.0886 141.783 43.8108 142.265 44.6533 143.107C45.1347 143.107 46.5791 142.987 48.9862 142.626C49.4677 142.505 49.8288 142.265 50.4306 141.663C50.912 141.181 51.8749 140.82 53.3192 140.82C54.1617 140.82 54.6431 141.061 54.8838 141.783C54.5228 141.422 54.6431 142.144 54.8838 143.468Z" fill="#E15200" stroke="#E15200" stroke-miterlimit="10"/>
<path d="M64.0311 160.559C63.9107 162.124 63.3089 164.291 62.346 166.818C60.7814 170.91 58.976 174.16 56.5688 176.447C55.3652 177.65 54.0413 178.252 52.7173 178.252C52.2359 178.252 51.5137 178.132 50.6712 177.891C48.9862 177.771 47.6622 177.289 46.6993 176.327C45.6161 175.243 45.255 173.919 45.4957 172.355C45.7365 170.429 46.579 167.901 48.1437 164.531C49.8287 160.8 51.3933 158.273 53.0784 156.588C53.8005 155.865 54.4023 155.384 54.8838 155.384C55.4856 155.384 56.4484 155.986 57.652 157.189C58.0131 157.069 58.8556 156.708 60.0592 156.227C60.661 155.986 61.1425 155.986 61.3832 155.986C62.1053 155.986 62.8275 156.588 63.5496 157.912C64.0311 158.754 64.1514 159.597 64.0311 160.559ZM60.9017 161.402C61.1425 160.198 61.2628 159.476 61.2628 159.115C61.3832 158.393 61.1425 158.032 60.661 158.032C60.5407 158.032 60.2999 158.032 59.9389 158.152L55.7263 159.837C55.2448 160.078 55.0041 160.078 54.8838 160.078C54.7634 160.078 54.643 159.958 54.5227 159.597C53.4395 160.8 52.2359 162.726 51.1526 165.013C50.3101 166.818 49.7083 168.503 49.2269 170.068C48.9862 171.031 48.7454 171.994 48.7454 172.836C48.5047 175.604 49.2269 176.928 50.9119 176.808C51.6341 176.808 52.3562 176.567 53.1987 175.965C54.7634 175.003 56.3281 172.956 57.8928 169.948C59.4574 166.939 60.4203 164.17 60.9017 161.402Z" fill="#E15200" stroke="#E15200" stroke-miterlimit="10"/>
<path d="M94.6024 158.634C86.6587 186.918 78.3539 201 69.6881 201C66.5587 201 63.309 199.315 59.9389 195.825C59.5779 195.464 59.4575 195.223 59.5779 194.862C59.5779 194.38 59.939 194.14 60.4204 194.14C60.6611 194.14 60.9018 194.26 61.1425 194.38C63.7904 196.788 66.318 198.112 68.6048 198.112C75.9467 198.112 82.9276 187.4 89.6677 165.976C86.2976 171.031 83.409 174.762 81.0018 176.928C80.0389 177.891 79.1964 178.252 78.4743 178.252C77.8725 178.252 77.03 177.891 76.1875 177.169C74.6228 176.327 73.9006 175.003 74.1413 173.077C74.5024 170.79 75.5857 167.901 77.6318 164.411C79.5575 161.041 81.4833 158.513 83.409 156.828C84.4922 155.865 85.4551 155.384 86.2976 155.384C86.8994 155.384 87.5012 155.625 88.2234 156.227C88.3437 156.347 88.9455 156.949 90.1491 158.152C90.3899 158.393 90.5102 158.634 90.5102 158.874C90.5102 159.236 90.2695 159.356 89.7881 159.356C89.5473 159.356 89.1863 159.236 88.9455 159.115C88.4641 158.874 87.9827 158.634 87.3809 158.634C86.6587 158.634 85.9366 158.874 85.3348 159.476C83.8905 160.559 82.4461 162.485 80.7611 165.013C78.9557 167.781 77.7521 170.429 77.2707 172.716C77.1503 173.318 77.03 173.919 77.03 174.28C76.9096 175.604 77.2707 176.206 77.8725 176.206C78.3539 176.206 78.8354 175.965 79.4372 175.484C81.724 173.679 84.0108 171.031 86.418 167.661C88.5845 164.531 90.2695 161.643 91.3527 158.995C91.7138 158.032 91.9545 157.189 92.0749 156.347C92.0749 155.625 92.3156 155.384 92.6767 155.384C93.0378 155.384 93.6395 155.745 94.6024 156.467C94.8431 156.708 94.9635 157.43 94.6024 158.634Z" fill="#E15200" stroke="#E15200" stroke-miterlimit="10"/>
<path d="M113.98 160.559C113.86 162.124 113.258 164.291 112.295 166.818C110.73 170.91 108.925 174.16 106.518 176.447C105.314 177.65 103.99 178.252 102.666 178.252C102.185 178.252 101.463 178.132 100.62 177.891C98.9352 177.771 97.6113 177.289 96.6484 176.327C95.5652 175.243 95.2041 173.919 95.4448 172.355C95.6855 170.429 96.5281 167.901 98.0927 164.531C99.7778 160.8 101.342 158.273 103.027 156.588C103.75 155.865 104.351 155.384 104.833 155.384C105.435 155.384 106.398 155.986 107.601 157.189C107.962 157.069 108.805 156.708 110.008 156.227C110.61 155.986 111.092 155.986 111.332 155.986C112.054 155.986 112.777 156.588 113.499 157.912C113.98 158.754 114.101 159.597 113.98 160.559ZM110.851 161.402C111.092 160.198 111.212 159.476 111.212 159.115C111.332 158.393 111.092 158.032 110.61 158.032C110.49 158.032 110.249 158.032 109.888 158.152L105.675 159.837C105.194 160.078 104.953 160.078 104.833 160.078C104.712 160.078 104.592 159.958 104.472 159.597C103.389 160.8 102.185 162.726 101.102 165.013C100.259 166.818 99.6574 168.503 99.176 170.068C98.9352 171.031 98.6945 171.994 98.6945 172.836C98.4538 175.604 99.176 176.928 100.861 176.808C101.583 176.808 102.305 176.567 103.148 175.965C104.712 175.003 106.277 172.956 107.842 169.948C109.286 166.939 110.369 164.17 110.851 161.402Z" fill="#E15200" stroke="#E15200" stroke-miterlimit="10"/>
</svg>
