<svg width="113" height="113" viewBox="0 0 113 113" fill="none" xmlns="http://www.w3.org/2000/svg">
<g filter="url(#filter0_i_1_37)">
<path d="M56.5 104.831C84.6965 104.831 107.554 81.9736 107.554 53.7771C107.554 25.5806 84.6965 2.72289 56.5 2.72289C28.3035 2.72289 5.44579 25.5806 5.44579 53.7771C5.44579 81.9736 28.3035 104.831 56.5 104.831Z" fill="url(#paint0_linear_1_37)"/>
</g>
<path d="M21.1024 53.6512C21.1024 51.5499 21.2813 49.47 21.6534 47.3973C22.6766 41.6939 24.9591 36.5478 28.5224 31.9807C31.8997 27.6495 36.0712 24.276 41.0227 21.8746C43.0834 20.8739 45.23 20.102 47.4481 19.5231C51.6411 18.4295 55.9056 18.1151 60.2059 18.6011C67.2539 19.3945 73.529 22.0532 78.9673 26.6203C83.2531 30.2225 86.3871 34.6681 88.541 39.8141C89.5423 42.2156 90.2509 44.7028 90.6873 47.2687C91.0521 49.42 91.2455 51.5856 91.2094 53.7727C91.174 56.0884 90.8949 58.3755 90.4157 60.6412C89.9358 62.9068 89.2346 65.0939 88.319 67.2238C87.5321 69.0607 86.5873 70.8258 85.4852 72.4984C84.6411 73.7849 83.4103 74.307 81.908 74.0354C80.5486 73.7849 79.6609 72.9204 79.2675 71.6052C78.9673 70.6046 79.1892 69.6754 79.697 68.7605C80.4982 67.3453 81.2994 65.923 81.9938 64.4506C82.8596 62.621 83.4035 60.6698 83.7895 58.6757C84.2116 56.4886 84.3906 54.2873 84.2905 52.0645C84.183 49.7131 83.8113 47.4045 83.1244 45.1531C81.507 39.8141 78.5738 35.3399 74.3588 31.702C71.5971 29.3219 68.4773 27.5566 65.0143 26.3916C61.6799 25.2623 58.2525 24.7835 54.7465 24.9264C52.9362 24.9978 51.1473 25.2552 49.3728 25.684C46.0958 26.463 43.0548 27.7853 40.2642 29.6579C36.107 32.4381 32.8943 36.0618 30.6332 40.5217C29.5599 42.6444 28.7729 44.8672 28.2648 47.1901C27.6065 50.1919 27.4062 53.2295 27.764 56.2814C28.6083 63.5144 31.7423 69.5896 37.1731 74.4643C39.5487 76.6011 42.2319 78.2593 45.1871 79.4744C47.491 80.4179 49.8666 81.0537 52.3423 81.3682C54.5533 81.6541 56.7643 81.6827 58.9752 81.4539C60.6854 81.2756 62.3668 80.9468 64.0125 80.4465C65.8371 79.8958 67.7905 80.8467 68.3487 82.5901C68.964 84.5131 67.998 86.4144 66.0589 87.0073C63.6691 87.7438 61.2291 88.2013 58.732 88.3653C57.7231 88.43 56.707 88.4729 55.6981 88.4872C53.7948 88.5158 51.9202 88.287 50.0455 87.9794C47.6627 87.5866 45.3587 86.929 43.112 86.057C39.8206 84.7704 36.7867 83.0264 34.0176 80.825C29.2165 77.0013 25.7748 72.1696 23.5137 66.4805C22.5692 64.1004 21.9181 61.6275 21.5246 59.0902C21.2455 57.2891 21.0953 55.4737 21.1024 53.6512Z" fill="#003FA2"/>
<path d="M59.4117 47.4117C59.4117 51.0354 59.4117 54.6518 59.4117 58.2755C59.4117 59.8265 58.5531 61.0487 57.1149 61.599C55.2903 62.2923 53.0937 61.1344 52.6572 59.2332C52.5856 58.9259 52.5355 58.5971 52.5355 58.2827C52.5284 51.0282 52.5284 43.7809 52.5355 36.5264C52.5355 34.5252 54.0739 33.01 56.0416 33.0243C57.8591 33.0458 59.3903 34.5467 59.4117 36.3692C59.4332 38.5491 59.4189 40.729 59.4189 42.909C59.4117 44.4099 59.4117 45.9108 59.4117 47.4117Z" fill="#003FA2"/>
<path d="M55.9485 73.4922C54.0238 73.4704 52.514 71.9123 52.5284 69.9756C52.5498 68.1029 54.1312 66.5949 56.063 66.6164C57.9234 66.6378 59.426 68.2248 59.4046 70.1328C59.3902 71.9769 57.809 73.5133 55.9485 73.4922Z" fill="#003FA2"/>
<defs>
<filter id="filter0_i_1_37" x="5.44579" y="2.72289" width="102.108" height="106.108" filterUnits="userSpaceOnUse" color-interpolation-filters="sRGB">
<feFlood flood-opacity="0" result="BackgroundImageFix"/>
<feBlend mode="normal" in="SourceGraphic" in2="BackgroundImageFix" result="shape"/>
<feColorMatrix in="SourceAlpha" type="matrix" values="0 0 0 0 0 0 0 0 0 0 0 0 0 0 0 0 0 0 127 0" result="hardAlpha"/>
<feOffset dy="4"/>
<feGaussianBlur stdDeviation="4"/>
<feComposite in2="hardAlpha" operator="arithmetic" k2="-1" k3="1"/>
<feColorMatrix type="matrix" values="0 0 0 0 0 0 0 0 0 0 0 0 0 0 0 0 0 0 0.25 0"/>
<feBlend mode="normal" in2="shape" result="effect1_innerShadow_1_37"/>
</filter>
<linearGradient id="paint0_linear_1_37" x1="56.5" y1="2.72289" x2="56.5" y2="104.831" gradientUnits="userSpaceOnUse">
<stop stop-color="white"/>
<stop offset="1" stop-color="#DBCAB2"/>
</linearGradient>
</defs>
</svg>
