<svg width="113" height="113" viewBox="0 0 113 113" fill="none" xmlns="http://www.w3.org/2000/svg">
<g filter="url(#filter0_i_1_43)">
<path d="M56.5 101.976C83.645 101.976 105.65 79.9702 105.65 52.8252C105.65 25.6802 83.645 3.67479 56.5 3.67479C29.355 3.67479 7.34959 25.6802 7.34959 52.8252C7.34959 79.9702 29.355 101.976 56.5 101.976Z" fill="url(#paint0_linear_1_43)"/>
</g>
<path d="M70.9162 48.6243H67.3119C67.3105 47.1908 66.7405 45.8165 65.7269 44.8029C64.7133 43.7893 63.339 43.2193 61.9055 43.2179V39.6137C64.2944 39.6165 66.5847 40.5667 68.2739 42.2559C69.9631 43.9451 70.9133 46.2354 70.9162 48.6243Z" fill="#003FA2"/>
<path d="M78.1247 48.6243H74.5205C74.5166 45.2798 73.1863 42.0733 70.8214 39.7084C68.4565 37.3435 65.2501 36.0132 61.9055 36.0093V32.4051C66.2057 32.4099 70.3283 34.1202 73.369 37.1608C76.4096 40.2015 78.1199 44.3241 78.1247 48.6243ZM64.3078 63.91L68.3445 59.8731C68.8849 59.3326 69.5719 58.9627 70.3205 58.8089C71.0692 58.6551 71.8465 58.7244 72.5561 59.0082L77.4723 60.9761C78.1969 61.2659 78.8181 61.7664 79.2555 62.4127C79.693 63.059 79.9268 63.8215 79.9268 64.6019V73.5423C79.9281 74.0737 79.8209 74.5998 79.6118 75.0882C79.4027 75.5768 79.0961 76.0175 78.7108 76.3834C78.3255 76.7493 77.8696 77.0328 77.3709 77.2163C76.8722 77.4 76.3413 77.4798 75.8108 77.4511C41.3505 75.3066 34.3906 46.1193 33.0984 34.9425C33.0359 34.3961 33.0897 33.8426 33.2564 33.3185C33.423 32.7944 33.6988 32.3115 34.0655 31.9016C34.4321 31.4916 34.8814 31.1639 35.3838 30.9401C35.8862 30.7164 36.4303 30.6014 36.9803 30.603H45.7621C46.5425 30.6029 47.305 30.8368 47.9513 31.2743C48.5976 31.7118 49.098 32.3329 49.3879 33.0575L51.3541 37.9737C51.6378 38.6833 51.7071 39.4606 51.5533 40.2092C51.3996 40.9578 51.0295 41.6449 50.489 42.1852L46.4523 46.2221C46.4523 46.2221 48.6905 61.9582 64.3078 63.91Z" fill="#003FA2"/>
<defs>
<filter id="filter0_i_1_43" x="7.34959" y="3.67479" width="98.3008" height="102.301" filterUnits="userSpaceOnUse" color-interpolation-filters="sRGB">
<feFlood flood-opacity="0" result="BackgroundImageFix"/>
<feBlend mode="normal" in="SourceGraphic" in2="BackgroundImageFix" result="shape"/>
<feColorMatrix in="SourceAlpha" type="matrix" values="0 0 0 0 0 0 0 0 0 0 0 0 0 0 0 0 0 0 127 0" result="hardAlpha"/>
<feOffset dy="4"/>
<feGaussianBlur stdDeviation="4"/>
<feComposite in2="hardAlpha" operator="arithmetic" k2="-1" k3="1"/>
<feColorMatrix type="matrix" values="0 0 0 0 0 0 0 0 0 0 0 0 0 0 0 0 0 0 0.25 0"/>
<feBlend mode="normal" in2="shape" result="effect1_innerShadow_1_43"/>
</filter>
<linearGradient id="paint0_linear_1_43" x1="56.5" y1="3.67479" x2="56.5" y2="101.976" gradientUnits="userSpaceOnUse">
<stop stop-color="white"/>
<stop offset="1" stop-color="#DBCAB2"/>
</linearGradient>
</defs>
</svg>
