<svg width="113" height="113" viewBox="0 0 113 113" fill="none" xmlns="http://www.w3.org/2000/svg">
<g filter="url(#filter0_i_1_29)">
<path d="M56.5 104.831C84.6965 104.831 107.554 81.9736 107.554 53.7771C107.554 25.5806 84.6965 2.72289 56.5 2.72289C28.3035 2.72289 5.44579 25.5806 5.44579 53.7771C5.44579 81.9736 28.3035 104.831 56.5 104.831Z" fill="url(#paint0_linear_1_29)"/>
</g>
<path d="M70.6611 76.7147C69.0907 76.7147 67.5265 76.7216 65.9557 76.7079C65.6645 76.7079 65.5359 76.7753 65.5224 77.0994C65.3937 80.2082 63.349 82.9529 60.4037 83.9713C56.7612 85.2326 52.8139 83.7017 51.013 80.3294C50.4848 79.3383 50.1598 78.2791 50.1395 77.1463C50.1327 76.8087 50.0109 76.7079 49.6791 76.7079C46.8016 76.7216 43.9241 76.7079 41.0466 76.7147C39.7128 76.7216 38.5076 76.3574 37.4785 75.5071C36.5103 74.7046 35.9077 73.6794 35.6775 72.4384C35.3457 70.6311 35.8738 69.0934 37.1129 67.7718C38.23 66.578 39.2524 65.3169 40.0581 63.8871C40.9044 62.3831 41.5341 60.7915 41.9403 59.1121C42.333 57.4733 42.4617 55.8075 42.4548 54.1282C42.4481 52.8333 42.4414 51.5452 42.4617 50.2502C42.5023 46.777 43.5991 43.6544 45.7387 40.923C47.499 38.6771 49.7333 37.0518 52.4144 36.0469C52.8478 35.885 53.2879 35.7569 53.7347 35.6288C53.9852 35.5546 54.0936 35.4399 54.0936 35.1566C54.08 33.8213 54.08 32.4792 54.0868 31.1438C54.0936 30.1389 54.3779 29.2352 55.055 28.4461C56.4498 26.8275 59.158 26.8073 60.5798 28.4124C61.2839 29.2083 61.5683 30.1322 61.5751 31.164C61.5819 32.4927 61.5886 33.8145 61.5683 35.1431C61.5615 35.4467 61.6902 35.5546 61.9542 35.6288C66.3552 36.8967 69.5712 39.5876 71.6359 43.6476C72.7264 45.799 73.207 48.1055 73.2138 50.5133C73.2138 51.9296 73.1661 53.3458 73.2274 54.7621C73.2812 55.9829 73.3629 57.2103 73.5861 58.4107C74.094 61.1692 75.2246 63.6713 76.951 65.8901C77.5132 66.605 78.1225 67.2862 78.7249 67.9606C81.0809 70.6046 80.2824 74.6576 77.0864 76.209C76.3213 76.58 75.5092 76.7216 74.6624 76.7147C73.3288 76.7079 71.9953 76.7147 70.6611 76.7147ZM57.8377 72.2635C63.3693 72.2635 68.8939 72.2635 74.4255 72.2635C74.5746 72.2635 74.7168 72.2703 74.8659 72.2567C75.5024 72.1961 75.8067 71.5215 75.4411 71.0089C75.3465 70.8741 75.2315 70.7462 75.1164 70.6243C73.7012 69.1744 72.5031 67.5627 71.5344 65.7889C70.6747 64.2243 70.0042 62.5719 69.544 60.8387C69.0566 59.0245 68.7789 57.1901 68.7653 55.3151C68.7517 53.8112 68.7517 52.3005 68.7387 50.7965C68.7251 49.7849 68.657 48.78 68.4133 47.7886C67.9936 46.1025 67.2218 44.5986 66.0708 43.2902C64.2698 41.2467 62.0287 40.0057 59.307 39.6348C57.7158 39.419 56.1586 39.5404 54.6284 40.0125C52.9899 40.5183 51.5411 41.3613 50.3088 42.5618C48.3724 44.4434 47.2146 46.723 47.025 49.4207C46.9167 51.0191 46.937 52.631 46.9438 54.2361C46.9574 57.0754 46.5849 59.8473 45.61 62.5382C44.9261 64.4199 44.0528 66.1936 42.8679 67.8055C42.1096 68.8374 41.2362 69.7748 40.4304 70.7727C40.2612 70.9817 40.1123 71.2588 40.0987 71.5079C40.0648 71.9803 40.4575 72.2567 41.0601 72.2567C46.6459 72.2635 52.2384 72.2635 57.8377 72.2635ZM57.8241 76.7147C56.9034 76.7147 55.9758 76.7147 55.055 76.7147C54.5879 76.7147 54.5608 76.7481 54.642 77.2205C54.9196 78.8393 56.294 79.9788 57.919 79.9387C59.5304 79.9046 60.8371 78.7174 61.0538 77.0994C61.0944 76.7958 60.9996 76.7011 60.7017 76.7079C59.7402 76.7216 58.7789 76.7147 57.8241 76.7147Z" fill="#003FA2"/>
<path d="M27.9861 57.6149C26.9502 57.5879 26.1513 56.9404 25.8127 55.8546C25.2034 53.8988 24.7159 51.916 24.6076 49.8657C24.5399 48.5438 24.4451 47.2085 24.5466 45.8934C24.7294 43.506 25.1966 41.1657 26.0023 38.8929C26.9231 36.2761 28.223 33.8617 29.8819 31.6496C31.3308 29.7207 33.0437 28.028 34.9734 26.5577C36.7879 25.1684 38.7581 24.0421 40.8706 23.1788C41.5138 22.9158 42.1705 22.6528 42.8476 22.5044C43.9038 22.2751 44.9871 22.963 45.3121 23.9881C45.6574 25.0672 45.1564 26.2407 44.1204 26.6926C42.7866 27.2658 41.4258 27.7649 40.1597 28.4866C38.7378 29.3026 37.4108 30.2468 36.1989 31.3461C34.7026 32.6949 33.4161 34.2326 32.3531 35.9322C31.4053 37.4496 30.647 39.0615 30.085 40.7677C29.5772 42.319 29.2251 43.9106 29.0829 45.5359C28.9204 47.3772 28.9069 49.2183 29.2793 51.0392C29.5366 52.2869 29.8413 53.5346 30.173 54.7688C30.5725 56.2323 29.5027 57.6553 27.9861 57.6149Z" fill="#003FA2"/>
<path d="M91.2169 47.4311C91.1896 49.3397 90.9868 51.2214 90.5668 53.0828C90.3367 54.0877 90.0726 55.0859 89.7547 56.0638C89.4565 56.9877 88.786 57.5407 87.7908 57.6082C86.8296 57.6689 86.1053 57.2642 85.6513 56.4212C85.2721 55.7198 85.4008 55.0049 85.6309 54.2968C86.5042 51.6125 86.8228 48.8609 86.6329 46.0553C86.4573 43.3509 85.7663 40.7678 84.6084 38.3197C83.153 35.2308 81.1081 32.614 78.4343 30.4694C76.4363 28.871 74.209 27.6975 71.819 26.8208C71.0198 26.5308 70.4991 25.9912 70.3091 25.1482C69.9708 23.6442 71.2839 22.2144 72.8006 22.5112C73.5119 22.6461 74.1886 22.9563 74.8659 23.2261C78.373 24.6491 81.4131 26.7736 83.9992 29.505C85.6853 31.2855 87.0801 33.2818 88.204 35.4669C89.0093 37.0383 89.6662 38.6704 90.1536 40.3632C90.628 41.9953 90.9391 43.6611 91.0746 45.3539C91.1154 46.0418 91.1692 46.7365 91.2169 47.4311Z" fill="#003FA2"/>
<path d="M82.117 48.3212C82.1034 49.4813 81.8528 51.1741 81.345 52.8264C81.1762 53.3862 81.0135 53.9392 80.567 54.3641C79.876 55.0115 79.0027 55.1329 78.1831 54.816C77.3233 54.4787 76.7753 53.6694 76.8291 52.759C76.8631 52.2396 77.0122 51.7204 77.1477 51.2145C77.6215 49.4947 77.7501 47.7548 77.5405 45.9743C77.2627 43.5801 76.403 41.4152 75.0014 39.4593C73.6603 37.5911 71.9408 36.1479 69.8626 35.143C69.2731 34.8597 68.657 34.6372 68.0681 34.3742C66.9577 33.8751 66.4296 32.6004 66.8765 31.5416C67.3775 30.3614 68.6101 29.8488 69.8081 30.2805C71.9476 31.056 73.904 32.1351 75.6378 33.612C77.4315 35.1363 78.8876 36.937 79.9843 39.0209C80.7698 40.5114 81.3382 42.0694 81.7044 43.7149C81.9951 45.0368 82.117 46.3857 82.117 48.3212Z" fill="#003FA2"/>
<path d="M33.5448 47.0196C33.6869 43.2834 34.8515 39.891 37.0317 36.8494C38.8258 34.354 41.1143 32.4319 43.8903 31.1033C44.6689 30.7323 45.4813 30.4018 46.3074 30.1726C47.3501 29.8826 48.4537 30.5704 48.8193 31.6158C49.1849 32.6612 48.6771 33.8752 47.6683 34.3405C46.8626 34.7114 46.023 35.0149 45.2376 35.4331C43.1793 36.5256 41.5341 38.0835 40.2612 40.0326C39.293 41.5163 38.6363 43.1282 38.291 44.8615C37.9118 46.7499 37.9389 48.6383 38.3248 50.5132C38.4331 51.0527 38.616 51.572 38.7649 52.1048C39.0628 53.1367 38.5753 54.2832 37.641 54.735C36.2733 55.396 34.8244 54.6473 34.3911 53.1231C33.924 51.5046 33.6125 49.8725 33.538 48.1931C33.5313 47.802 33.5448 47.4108 33.5448 47.0196Z" fill="#003FA2"/>
<defs>
<filter id="filter0_i_1_29" x="5.44579" y="2.72289" width="102.108" height="106.108" filterUnits="userSpaceOnUse" color-interpolation-filters="sRGB">
<feFlood flood-opacity="0" result="BackgroundImageFix"/>
<feBlend mode="normal" in="SourceGraphic" in2="BackgroundImageFix" result="shape"/>
<feColorMatrix in="SourceAlpha" type="matrix" values="0 0 0 0 0 0 0 0 0 0 0 0 0 0 0 0 0 0 127 0" result="hardAlpha"/>
<feOffset dy="4"/>
<feGaussianBlur stdDeviation="4"/>
<feComposite in2="hardAlpha" operator="arithmetic" k2="-1" k3="1"/>
<feColorMatrix type="matrix" values="0 0 0 0 0 0 0 0 0 0 0 0 0 0 0 0 0 0 0.25 0"/>
<feBlend mode="normal" in2="shape" result="effect1_innerShadow_1_29"/>
</filter>
<linearGradient id="paint0_linear_1_29" x1="56.5" y1="2.72289" x2="56.5" y2="104.831" gradientUnits="userSpaceOnUse">
<stop stop-color="white"/>
<stop offset="1" stop-color="#DBCAB2"/>
</linearGradient>
</defs>
</svg>
