<svg width="113" height="113" viewBox="0 0 113 113" fill="none" xmlns="http://www.w3.org/2000/svg">
<g filter="url(#filter0_i_1_4)">
<path d="M105 52.5C105 79.2858 83.2858 101 56.5 101C29.7142 101 8 79.2858 8 52.5C8 25.7142 29.7142 4 56.5 4C83.2858 4 105 25.7142 105 52.5Z" fill="url(#paint0_linear_1_4)"/>
</g>
<path d="M50.3254 80C43.5161 80 36.7068 80 29.8975 80C28.0992 80 26.7524 79.0752 26.0978 77.406C26.0376 77.2481 26.0075 77.0676 26.0075 76.8947C26 66.0451 26 55.1955 26.0075 44.3383C26.0075 43.5564 26.4515 42.9398 26.9631 42.406C27.6704 41.6691 28.5356 41.2631 29.574 41.2481C30.7176 41.2331 31.8538 41.2406 32.9974 41.2406C33.5091 41.2406 33.5091 41.2406 33.5091 40.7143C33.5091 39.6466 33.5015 38.5864 33.5091 37.5188C33.5241 35.2932 35.1568 33.6541 37.3765 33.6315C38.49 33.6165 39.6111 33.6165 40.7247 33.6315C41.0332 33.6391 41.1385 33.5338 41.131 33.2255C41.1159 32.1579 41.1611 31.0977 41.1159 30.03C41.0407 27.7293 42.9292 25.9774 45.1489 26C49.4903 26.0451 53.8241 26.0075 58.1656 26.015C59.8434 26.015 61.0623 26.7894 61.8147 28.2782C62.4919 29.6315 63.1691 30.9849 63.8237 32.3534C63.9817 32.6842 64.1698 32.797 64.5385 32.797C71.6713 32.7894 78.8117 32.7819 85.9445 32.7894C87.6525 32.7894 88.9617 33.5188 89.6539 35.1128C89.8872 35.6466 89.985 36.2782 89.985 36.8571C90.0075 42.5188 90 48.1879 90 53.8496C90 56.1579 90 58.4586 90 60.7669C89.9925 62.7669 88.8413 64.2406 86.9001 64.6917C86.6142 64.7594 86.3057 64.7594 86.0047 64.7669C84.9514 64.7744 83.898 64.7894 82.8446 64.7594C82.4533 64.7518 82.3631 64.8797 82.3706 65.2556C82.3932 66.3233 82.3856 67.3834 82.3781 68.4511C82.3631 70.7293 80.7078 72.3759 78.428 72.3834C77.337 72.3909 76.246 72.3985 75.155 72.3759C74.839 72.3684 74.7487 72.4812 74.7562 72.7894C74.7637 73.9774 74.7863 75.1729 74.7411 76.3609C74.6659 78.3158 73.0633 79.8947 71.107 79.9924C70.9039 80 70.7082 80 70.5051 80C63.7635 80 57.0445 80 50.3254 80ZM70.9339 51.7819C70.7308 51.7819 70.5577 51.7819 70.3847 51.7819C63.297 51.7819 56.2168 51.7744 49.1291 51.7894C47.3233 51.7894 46.0517 51.015 45.2692 49.3834C44.6297 48.0526 43.9525 46.7443 43.313 45.4135C43.17 45.1128 43.012 45 42.6659 45C38.49 45.015 34.3141 45.0075 30.1383 45.0075C29.6417 45.0075 29.6417 45.0075 29.6417 45.4962C29.6417 55.5714 29.6417 65.6466 29.6417 75.7218C29.6417 76.233 29.6417 76.233 30.1684 76.233C43.5989 76.233 57.0294 76.233 70.4599 76.233C70.6104 76.233 70.7534 76.233 70.9339 76.233C70.9339 68.0676 70.9339 59.9473 70.9339 51.7819ZM37.2711 37.3909C37.2711 38.5789 37.2862 39.7067 37.2636 40.8346C37.2561 41.1804 37.3765 41.2556 37.7 41.2481C39.4682 41.2331 41.2363 41.2331 43.0045 41.2406C44.6447 41.2481 45.8185 42.015 46.5483 43.4586C47.2105 44.7669 47.8726 46.0676 48.4896 47.3985C48.7153 47.8797 48.9786 48.0225 49.5053 48.0225C56.6005 48 63.7033 48.0075 70.7985 48.015C72.3485 48.015 73.5147 48.6992 74.2897 50.0376C74.6659 50.6842 74.7487 51.3985 74.7487 52.1353C74.7411 57.4586 74.7487 62.7894 74.7487 68.1127C74.7487 68.6165 74.7487 68.6165 75.2377 68.6165C76.1632 68.6165 77.0962 68.6165 78.0217 68.6165C78.601 68.6165 78.601 68.6165 78.601 68.0526C78.601 60.2857 78.601 52.5112 78.601 44.7443C78.601 44.1654 78.601 44.1654 78.0367 44.1654C73.7254 44.1654 69.4066 44.1654 65.0952 44.1654C62.2963 44.1654 59.5048 44.1579 56.7059 44.1654C54.9753 44.1729 53.7263 43.421 52.9589 41.8872C52.2742 40.5263 51.597 39.1579 50.9424 37.7744C50.7919 37.4661 50.6189 37.3684 50.2803 37.3684C46.1195 37.3834 41.9511 37.3759 37.7903 37.3759C37.6323 37.3909 37.4818 37.3909 37.2711 37.3909ZM86.2229 60.9774C86.2229 60.7594 86.2229 60.5789 86.2229 60.3909C86.2229 52.6616 86.2229 44.9248 86.2229 37.1955C86.2229 36.5714 86.2229 36.5714 85.5758 36.5714C78.601 36.5714 71.6262 36.5714 64.6588 36.5714C64.4482 36.5714 64.23 36.5714 64.0193 36.5564C62.4167 36.4887 61.2805 35.7067 60.5733 34.2857C59.881 32.8947 59.1964 31.5037 58.5192 30.1128C58.3988 29.8646 58.2558 29.7669 57.9774 29.7669C53.7639 29.7744 49.5505 29.7744 45.337 29.7669C45.0209 29.7669 44.893 29.8346 44.9006 30.1804C44.9231 31.1955 44.9156 32.2105 44.9006 33.2255C44.893 33.5413 44.9984 33.6315 45.3069 33.6315C47.06 33.6165 48.8206 33.6165 50.5737 33.624C52.2366 33.6315 53.4479 34.3834 54.1853 35.8722C54.8549 37.218 55.5321 38.5564 56.1717 39.9173C56.3447 40.2857 56.5554 40.4135 56.9617 40.4135C64.0494 40.3985 71.1371 40.3985 78.2173 40.4135C78.6913 40.4135 79.1804 40.4586 79.6243 40.594C81.3398 41.1203 82.3555 42.5488 82.3555 44.3834C82.3631 49.7443 82.3555 55.1127 82.3555 60.4737C82.3555 60.6315 82.3555 60.797 82.3555 60.9849C83.6647 60.9774 84.9213 60.9774 86.2229 60.9774Z" fill="#003FA2"/>
<path d="M66.8408 70.4662C66.7506 70.9173 66.7355 71.391 66.5624 71.8045C66.2464 72.579 65.4338 72.9775 64.5987 72.8722C63.8237 72.7744 63.1315 72.1278 63.0336 71.3158C62.9659 70.7519 62.9659 70.1654 63.0336 69.6015C63.1465 68.6993 63.9666 68.0376 64.8695 68.0376C65.7875 68.0376 66.585 68.7143 66.7205 69.6316C66.7581 69.9023 66.7581 70.1805 66.7806 70.4511C66.8107 70.4587 66.8258 70.4662 66.8408 70.4662Z" fill="#003FA2"/>
<path d="M57.4583 70.4287C57.5185 70.0377 57.5185 69.6241 57.6464 69.2557C57.9323 68.4587 58.7449 67.97 59.5274 68.0452C60.3927 68.1279 61.1075 68.7219 61.2203 69.5941C61.3031 70.1956 61.2956 70.8196 61.2053 71.4211C61.0623 72.3459 60.1971 72.9475 59.234 72.8948C58.3687 72.8422 57.6238 72.1279 57.5335 71.2332C57.5034 70.97 57.526 70.7068 57.526 70.4437C57.5034 70.4287 57.4809 70.4287 57.4583 70.4287Z" fill="#003FA2"/>
<defs>
<filter id="filter0_i_1_4" x="8" y="4" width="97" height="101" filterUnits="userSpaceOnUse" color-interpolation-filters="sRGB">
<feFlood flood-opacity="0" result="BackgroundImageFix"/>
<feBlend mode="normal" in="SourceGraphic" in2="BackgroundImageFix" result="shape"/>
<feColorMatrix in="SourceAlpha" type="matrix" values="0 0 0 0 0 0 0 0 0 0 0 0 0 0 0 0 0 0 127 0" result="hardAlpha"/>
<feOffset dy="4"/>
<feGaussianBlur stdDeviation="4"/>
<feComposite in2="hardAlpha" operator="arithmetic" k2="-1" k3="1"/>
<feColorMatrix type="matrix" values="0 0 0 0 0 0 0 0 0 0 0 0 0 0 0 0 0 0 0.25 0"/>
<feBlend mode="normal" in2="shape" result="effect1_innerShadow_1_4"/>
</filter>
<linearGradient id="paint0_linear_1_4" x1="56.5" y1="4" x2="56.5" y2="101" gradientUnits="userSpaceOnUse">
<stop stop-color="white"/>
<stop offset="1" stop-color="#DBCAB2"/>
</linearGradient>
</defs>
</svg>
