<svg width="113" height="113" viewBox="0 0 113 113" fill="none" xmlns="http://www.w3.org/2000/svg">
<g filter="url(#filter0_i_1_22)">
<path d="M56.5 104.831C84.6965 104.831 107.554 81.9736 107.554 53.7771C107.554 25.5806 84.6965 2.72289 56.5 2.72289C28.3035 2.72289 5.44579 25.5806 5.44579 53.7771C5.44579 81.9736 28.3035 104.831 56.5 104.831Z" fill="url(#paint0_linear_1_22)"/>
</g>
<path d="M32.6747 53.7608C32.6747 47.1829 32.6747 40.6049 32.6747 34.027C32.6747 31.7663 33.2575 29.6852 34.6119 27.857C35.991 25.9799 37.8214 24.7639 40.0788 24.1682C40.9982 23.9233 41.934 23.8254 42.8862 23.8254C51.2588 23.8335 59.6234 23.809 67.9961 23.8417C72.3139 23.858 76.0572 26.6247 77.3376 30.6809C77.6657 31.7337 77.8134 32.8109 77.8134 33.9046C77.8134 37.9852 77.7971 42.0658 77.8216 46.1464C77.8298 47.542 76.9108 48.4153 75.9993 48.6927C74.5875 49.1252 72.9708 48.0806 72.8394 46.6116C72.8142 46.3831 72.8142 46.1464 72.8142 45.9179C72.8142 41.9597 72.8142 38.0015 72.8142 34.0433C72.8142 32.8436 72.5603 31.7173 71.8047 30.738C70.9429 29.6199 69.7857 29.0078 68.382 28.8609C68.0866 28.8282 67.7909 28.8282 67.4954 28.8282C59.3196 28.8282 51.1439 28.8282 42.9682 28.82C41.9176 28.82 40.9243 28.9914 40.0213 29.5546C38.8065 30.3135 38.0677 31.3909 37.8133 32.7864C37.7393 33.2027 37.7065 33.627 37.7065 34.0515C37.6983 47.1992 37.7065 60.3551 37.6983 73.5031C37.6983 74.8332 38.0184 76.049 38.9214 77.0612C39.9639 78.2362 41.3101 78.7263 42.8615 78.7181C43.6331 78.7099 44.4129 78.7099 45.1845 78.7181C46.3583 78.7345 47.2449 79.3954 47.6143 80.4887C48.0329 81.746 47.2695 83.215 45.989 83.59C45.7345 83.6636 45.4554 83.7044 45.1845 83.7126C44.2405 83.7289 43.2883 83.7453 42.3444 83.7126C38.4371 83.59 34.8089 81.2559 33.3396 77.3716C32.8635 76.1062 32.6747 74.8087 32.6747 73.4704C32.6747 66.9005 32.6747 60.3307 32.6747 53.7608Z" fill="#003FA2"/>
<path d="M72.8142 63.3993C72.7734 66.1414 72.1662 68.3289 70.9184 70.3282C70.7625 70.5814 70.7952 70.7115 70.9919 70.9157C73.8081 73.6985 76.6065 76.4983 79.4145 79.2811C79.8576 79.7215 80.1858 80.2116 80.2926 80.8399C80.4975 82.0067 79.7426 83.2476 78.5935 83.5982C77.567 83.9168 76.697 83.6391 75.9503 82.9046C73.2662 80.2361 70.5903 77.567 67.9058 74.8986C67.7416 74.7352 67.5692 74.58 67.4133 74.4003C67.2491 74.2131 67.1178 74.1968 66.8961 74.3356C65.9768 74.9231 64.9917 75.3717 63.941 75.6821C62.2665 76.1797 60.5592 76.3594 58.8107 76.147C55.7818 75.7801 53.2207 74.4983 51.1275 72.303C49.535 70.6379 48.4679 68.6795 48.0165 66.4271C47.0889 61.7833 48.3777 57.8006 51.817 54.5443C53.2371 53.1977 54.9363 52.3081 56.8325 51.7695C58.3757 51.3288 59.9353 51.19 61.5195 51.3532C64.8276 51.7042 67.5856 53.1406 69.7693 55.646C71.2138 57.3028 72.1417 59.2206 72.5603 61.3589C72.7244 62.1505 72.7652 62.9748 72.8142 63.3993ZM60.2636 71.2261C64.409 71.2261 67.7826 67.888 67.7909 63.7747C67.7909 59.6369 64.4171 56.2663 60.2718 56.2663C56.143 56.2663 52.7528 59.6287 52.7528 63.7338C52.7446 67.8798 56.1019 71.2261 60.2636 71.2261Z" fill="#003FA2"/>
<path d="M55.2564 38.8013C51.9483 38.8013 48.6403 38.8013 45.3323 38.8013C44.101 38.8013 43.1898 38.1402 42.8122 36.9814C42.3936 35.6837 43.3129 34.1331 44.6673 33.8801C44.9054 33.8393 45.1517 33.7984 45.3897 33.7984C51.9648 33.7903 58.548 33.7903 65.1231 33.7984C66.2558 33.7984 67.1095 34.2718 67.5774 35.3165C68.2997 36.9324 67.1095 38.7768 65.3365 38.7932C62.5948 38.8094 59.8613 38.8013 57.1197 38.8013C56.4958 38.8013 55.872 38.8013 55.2564 38.8013Z" fill="#003FA2"/>
<path d="M50.2574 43.804C51.8991 43.804 53.5327 43.7959 55.1744 43.804C56.3646 43.8122 57.2265 44.408 57.6287 45.4935C58.1623 46.938 57.0952 48.6274 55.552 48.7579C55.3878 48.7743 55.2236 48.7824 55.0676 48.7824C51.8417 48.7824 48.6157 48.7743 45.3815 48.7906C44.5197 48.7906 43.7973 48.5294 43.2638 47.8439C42.6481 47.0604 42.5332 46.179 42.9436 45.2731C43.3705 44.3345 44.1339 43.8204 45.1764 43.8122C46.8755 43.7959 48.5664 43.804 50.2574 43.804Z" fill="#003FA2"/>
<defs>
<filter id="filter0_i_1_22" x="5.44579" y="2.72289" width="102.108" height="106.108" filterUnits="userSpaceOnUse" color-interpolation-filters="sRGB">
<feFlood flood-opacity="0" result="BackgroundImageFix"/>
<feBlend mode="normal" in="SourceGraphic" in2="BackgroundImageFix" result="shape"/>
<feColorMatrix in="SourceAlpha" type="matrix" values="0 0 0 0 0 0 0 0 0 0 0 0 0 0 0 0 0 0 127 0" result="hardAlpha"/>
<feOffset dy="4"/>
<feGaussianBlur stdDeviation="4"/>
<feComposite in2="hardAlpha" operator="arithmetic" k2="-1" k3="1"/>
<feColorMatrix type="matrix" values="0 0 0 0 0 0 0 0 0 0 0 0 0 0 0 0 0 0 0.25 0"/>
<feBlend mode="normal" in2="shape" result="effect1_innerShadow_1_22"/>
</filter>
<linearGradient id="paint0_linear_1_22" x1="56.5" y1="2.72289" x2="56.5" y2="104.831" gradientUnits="userSpaceOnUse">
<stop stop-color="white"/>
<stop offset="1" stop-color="#DBCAB2"/>
</linearGradient>
</defs>
</svg>
