<svg width="113" height="113" viewBox="0 0 113 113" fill="none" xmlns="http://www.w3.org/2000/svg">
<g filter="url(#filter0_i_1_48)">
<path d="M56.5 104.831C84.6965 104.831 107.554 81.9736 107.554 53.7771C107.554 25.5806 84.6965 2.72289 56.5 2.72289C28.3035 2.72289 5.44579 25.5806 5.44579 53.7771C5.44579 81.9736 28.3035 104.831 56.5 104.831Z" fill="url(#paint0_linear_1_48)"/>
</g>
<path d="M76.7828 38.8943C76.6807 38.7235 76.6256 38.621 76.5643 38.5391C73.4827 34.3382 69.4916 31.3463 64.5717 29.6182C61.1276 28.4092 57.5879 27.9652 53.9525 28.293C47.2488 28.9078 41.6523 31.7289 37.1695 36.7426C35.1878 38.9626 33.7118 41.4968 32.6047 44.2495C31.9351 45.9094 30.4112 46.9203 28.7028 46.8998C26.8988 46.8793 25.4296 45.8889 24.7599 44.2017C24.3294 43.1088 24.4114 42.0227 24.8488 40.9435C26.3521 37.2344 28.4227 33.8737 31.115 30.8956C34.3678 27.2958 38.2218 24.5362 42.6431 22.569C44.5906 21.7015 46.6133 21.0457 48.6907 20.5812C51.7726 19.8982 54.9023 19.6044 58.0526 19.8025C63.738 20.1577 69.0341 21.7902 73.8857 24.8026C76.5303 26.4487 78.908 28.4092 81.0128 30.7043C81.1156 30.8204 81.2245 30.9297 81.3477 31.0595C81.4641 30.5813 81.539 30.1305 81.6827 29.707C82.2497 28.0062 84.0196 26.8244 85.8031 26.9269C87.7302 27.0362 89.3292 28.3477 89.7186 30.1578C89.7941 30.5062 89.8418 30.8751 89.8418 31.2371C89.8486 35.1647 89.8282 39.0924 89.8554 43.02C89.869 45.0624 88.4817 46.7769 86.6233 47.2209C86.2408 47.3097 85.8303 47.3507 85.4409 47.3507C81.5663 47.3575 77.6991 47.3575 73.8244 47.3575C71.8353 47.3575 70.3323 46.3192 69.6488 44.4886C68.8429 42.3233 70.2159 39.6661 72.4575 39.1128C72.9292 38.9967 73.4207 38.9557 73.9061 38.9421C74.7059 38.9148 75.4983 38.9352 76.2981 38.9352C76.4275 38.9216 76.5575 38.9079 76.7828 38.8943Z" fill="#003FA2"/>
<path d="M30.9374 75.8822C30.8827 76.3063 30.8417 76.7365 30.7597 77.1531C30.3497 79.2225 28.1083 80.6847 26.0173 80.3294C24.4866 80.07 22.9286 78.9496 22.4912 76.8455C22.457 76.6814 22.4639 76.5044 22.4639 76.3335C22.4639 72.2213 22.457 68.1159 22.4639 64.004C22.4707 61.9821 24.2132 60.1515 26.2291 60.0012C26.4478 59.9875 26.6596 59.9739 26.8783 59.9739C30.7529 59.9739 34.6206 59.9807 38.4952 59.967C39.8482 59.9602 40.9826 60.4178 41.8777 61.4425C43.8526 63.7034 42.7729 67.3715 39.8824 68.1846C39.4382 68.3071 38.9667 68.3616 38.502 68.3827C37.7504 68.4167 36.9986 68.3895 36.247 68.3963C36.1308 68.3963 36.0078 68.4167 35.8233 68.4304C35.9326 68.5876 35.9942 68.6897 36.0625 68.7857C38.6387 72.1396 41.8436 74.7148 45.7045 76.4561C47.9458 77.467 50.2898 78.13 52.7293 78.4574C54.8066 78.7379 56.884 78.7787 58.9614 78.5398C63.615 78.0068 67.8312 76.354 71.5555 73.4915C75.2798 70.6298 77.9448 66.9753 79.7011 62.631C80.4798 60.7116 82.2837 59.7211 84.3477 60.0217C86.4797 60.3359 88.106 62.5558 87.7915 64.6734C87.6417 65.6706 87.1972 66.5586 86.7874 67.4534C84.7643 71.8796 81.9012 75.6909 78.2246 78.8883C75.2934 81.4288 72.0273 83.4097 68.412 84.8242C66.3211 85.6438 64.1685 86.2313 61.9544 86.6206C59.508 87.0509 57.048 87.2149 54.5743 87.0985C52.7225 87.01 50.8842 86.7568 49.0666 86.3674C46.8047 85.8827 44.6111 85.1789 42.4996 84.2367C38.1604 82.3035 34.3883 79.5779 31.1902 76.0667C31.1219 75.9918 31.0809 75.8958 31.0262 75.8073C30.9989 75.8278 30.9647 75.855 30.9374 75.8822Z" fill="#003FA2"/>
<defs>
<filter id="filter0_i_1_48" x="5.44579" y="2.72289" width="102.108" height="106.108" filterUnits="userSpaceOnUse" color-interpolation-filters="sRGB">
<feFlood flood-opacity="0" result="BackgroundImageFix"/>
<feBlend mode="normal" in="SourceGraphic" in2="BackgroundImageFix" result="shape"/>
<feColorMatrix in="SourceAlpha" type="matrix" values="0 0 0 0 0 0 0 0 0 0 0 0 0 0 0 0 0 0 127 0" result="hardAlpha"/>
<feOffset dy="4"/>
<feGaussianBlur stdDeviation="4"/>
<feComposite in2="hardAlpha" operator="arithmetic" k2="-1" k3="1"/>
<feColorMatrix type="matrix" values="0 0 0 0 0 0 0 0 0 0 0 0 0 0 0 0 0 0 0.25 0"/>
<feBlend mode="normal" in2="shape" result="effect1_innerShadow_1_48"/>
</filter>
<linearGradient id="paint0_linear_1_48" x1="56.5" y1="2.72289" x2="56.5" y2="104.831" gradientUnits="userSpaceOnUse">
<stop stop-color="white"/>
<stop offset="1" stop-color="#DBCAB2"/>
</linearGradient>
</defs>
</svg>
