<svg xmlns="http://www.w3.org/2000/svg" viewBox="0 0 510.78 336.86"><defs><style>.cls-1{fill:#fff;}</style></defs><g id="Capa_2" data-name="Capa 2"><g id="Capa_1-2" data-name="Capa 1"><g id="FGjbYM.tif"><path class="cls-1" d="M510.78,113.46v10c-.7,2.53-1.39,5.06-2.1,7.58-2.69,9.59-5,11.34-15.18,11.34q-18.45,0-36.92,0c-1.53,0-3.07.17-4.61.26-.27.48-.54,1-.82,1.45a16.94,16.94,0,0,1,1.91.59c11.37,5,15.45,14.06,15.42,26-.14,50-.05,100-.06,150.06,0,10.06-1.62,12.49-10.54,16.14H398c-8.92-3.62-10.57-6.12-10.59-16.11q0-16.44,0-32.9V269.3H123.14v5.59q0,22.94,0,45.86c0,10-1.67,12.49-10.59,16.11H52.66c-8.93-3.65-10.54-6.08-10.54-16.14q0-75,0-150.05c0-1.5,0-3,.13-4.49q.89-14.43,13.87-20.87c.93-.47,1.75-1.18,3.84-2.6-2.93-.17-4.47-.34-6-.34-13,0-25.94,0-38.91,0-7.47,0-10.25-2.41-12.63-9.41-3.53-10.37-3-20.54.43-30.76,1.61-4.77,4.8-7.63,9.88-7.67q23-.16,45.9,0c5.06,0,8.41,2.68,10,7.5.74,2.26,1.42,4.53,2.41,7.71.82-2.26,1.28-3.5,1.73-4.73q14.34-39.54,28.69-79.06C107.66,8.84,120,.07,138.18.06q117.24-.12,234.48,0c17.93,0,30.22,8.86,36.4,25.65,5.72,15.57,11.3,31.2,16.95,46.79,4.38,12.09,8.78,24.16,13.55,37.26,1-3.24,1.66-5.43,2.34-7.62,1.5-4.85,4.79-7.61,9.86-7.65q23-.16,45.9,0c5.08,0,8.44,2.74,9.95,7.54C508.8,105.8,509.73,109.65,510.78,113.46ZM406.09,142.82c-.35-1.31-.53-2.24-.85-3.13-11.26-31.2-22.61-62.37-33.73-93.63-1.19-3.34-3.09-3.59-6-3.58q-110.25.06-220.5,0c-3.57,0-5.18,1.06-6.4,4.46-10.86,30.47-21.93,60.86-32.92,91.28-.53,1.46-.87,3-1.35,4.65ZM122.65,176.3c-7.64,0-15.29-.07-22.93,0-11.58.12-19.89,7.75-20.1,18.36-.22,10.9,7.91,19.1,19.71,19.26,15.62.22,31.24.26,46.86,0,11.53-.2,19.45-8.35,19.32-19.11s-8.37-18.36-19.93-18.49C137.94,176.23,130.29,176.3,122.65,176.3Zm265.35,0c-7.81,0-15.62-.09-23.43,0-11,.16-19.15,7.7-19.52,17.87-.39,10.69,7,19.28,18.19,19.61q24.66.72,49.34,0c11.18-.32,18.73-8.94,18.33-19.53-.39-10.19-8.53-17.78-19.48-18C403.63,176.2,395.81,176.3,388,176.3Z"/></g></g></g></svg>