<svg xmlns="http://www.w3.org/2000/svg" viewBox="0 0 126.03 119.42"><defs><style>.cls-1{fill:#fff;}</style></defs><g id="Capa_2" data-name="Capa 2"><g id="Capa_1-2" data-name="Capa 1"><path class="cls-1" d="M72.12,84.49H53.92v30.88a3.67,3.67,0,0,1-2.52,3.84,5.41,5.41,0,0,1-1.6.2H19.64c-2.65,0-4.1-1.48-4.1-4.13q0-24.95,0-49.88c0-1,0-1-1-1-2.52,0-5,0-7.54,0-3.52,0-5.87-1.75-6.75-5.13a5.77,5.77,0,0,1,1.66-5.76c2.09-2.06,4.3-4,6.47-6L53.51,6.39c1.62-1.47,3.23-3,4.86-4.42,2.94-2.62,6.37-2.63,9.3,0,4,3.61,8,7.26,12,10.89L120.4,50c1.26,1.14,2.56,2.24,3.74,3.46a6,6,0,0,1,1.47,6.6,6,6,0,0,1-5.43,4.24c-2.85.18-5.71.09-8.57.11-1.11,0-1.11,0-1.11,1.12V115.3c0,2-.84,3.35-2.52,3.91a5.32,5.32,0,0,1-1.6.2q-15.07,0-30.15,0c-2.65,0-4.11-1.47-4.11-4.12V84.49Z"/><path class="cls-1" d="M113.17,33.29,84.75,7.48c.46,0,.71-.07,1-.07h23.41c2.65,0,4.11,1.47,4.11,4.12q0,10.41,0,20.83C113.23,32.62,113.2,32.88,113.17,33.29Z"/></g></g></svg>