<svg xmlns="http://www.w3.org/2000/svg" viewBox="0 0 130.01 121.58"><defs><style>.cls-1{fill:#fff;}</style></defs><g id="Capa_2" data-name="Capa 2"><g id="Capa_1-2" data-name="Capa 1"><path class="cls-1" d="M65.41,121.58,12.26,68.42h.86c5.17,0,10.34,0,15.51,0A1.33,1.33,0,0,0,30,67.66Q35.86,57.33,41.79,47c.15-.27.33-.53.62-1l13.3,40L72.77,56.13c.3.47.5.77.69,1.09,2.11,3.56,4.23,7.12,6.33,10.69a1.11,1.11,0,0,0,1.09.63c5.22,0,10.44,0,15.66,0a4.35,4.35,0,1,0-.07-8.69c-3.5,0-7,0-10.5,0a1.33,1.33,0,0,1-1.34-.75Q79,49.35,73.23,39.6c-.17-.29-.37-.56-.62-.94L58,64.52h-.24c-4.33-13.13-8.67-26.27-13.06-39.59-.25.39-.4.59-.52.81q-9.59,16.59-19.14,33.2a1.42,1.42,0,0,1-1.4.82q-8.76,0-17.53,0a1.33,1.33,0,0,1-1.37-.82,40.08,40.08,0,0,1,1-39.68,39.69,39.69,0,0,1,25-18.18A39.66,39.66,0,0,1,60.08,5.51c1.45.87,2.85,1.83,4.22,2.83a1.11,1.11,0,0,0,1.6,0,37.56,37.56,0,0,1,14.15-7,40,40,0,0,1,35,7.5,38.5,38.5,0,0,1,11.39,14.63,39.58,39.58,0,0,1,3.16,22.13A38.92,38.92,0,0,1,121.2,65c-2,2.47-4.34,4.7-6.59,7-6.72,6.76-13.48,13.47-20.2,20.22Q80.21,106.49,66,120.78A7.44,7.44,0,0,0,65.41,121.58Z"/></g></g></svg>